<svg xmlns="http://www.w3.org/2000/svg" xmlns:xlink="http://www.w3.org/1999/xlink" viewBox="0 0 273.14 277.06"><defs><style>.cls-1{isolation:isolate;}.cls-10,.cls-11,.cls-12,.cls-13,.cls-14,.cls-15,.cls-2,.cls-28,.cls-29,.cls-3,.cls-35,.cls-38,.cls-4,.cls-40,.cls-45,.cls-46,.cls-47,.cls-48,.cls-49,.cls-5,.cls-50,.cls-58,.cls-59,.cls-60,.cls-61,.cls-62,.cls-63,.cls-64,.cls-65,.cls-66,.cls-67,.cls-68,.cls-7,.cls-9{mix-blend-mode:multiply;}.cls-2{fill:url(#linear-gradient);}.cls-3{fill:url(#linear-gradient-2);}.cls-4{fill:url(#linear-gradient-3);}.cls-5{fill:url(#linear-gradient-4);}.cls-6{fill:#ffb300;}.cls-7{fill:url(#linear-gradient-5);}.cls-8{fill:#ffd54f;}.cls-9{fill:url(#linear-gradient-6);}.cls-10{fill:url(#linear-gradient-7);}.cls-11{fill:url(#linear-gradient-8);}.cls-12{fill:url(#linear-gradient-9);}.cls-13{fill:url(#linear-gradient-10);}.cls-14{fill:url(#linear-gradient-11);}.cls-15{fill:url(#linear-gradient-12);}.cls-16,.cls-17{fill:#fff;}.cls-17,.cls-25,.cls-26,.cls-36,.cls-41,.cls-42{mix-blend-mode:overlay;}.cls-18,.cls-36,.cls-42,.cls-53{fill:none;}.cls-18,.cls-36,.cls-42{stroke:#fff;stroke-miterlimit:10;}.cls-18,.cls-42,.cls-53{stroke-linecap:round;}.cls-18{stroke-width:2.17px;}.cls-19{fill:#656e79;}.cls-20{fill:#2e3b47;}.cls-21{fill:#cbdfef;}.cls-22{fill:#f8fbff;}.cls-23{fill:#abc3d3;}.cls-24{fill:#263238;}.cls-25{fill:url(#linear-gradient-13);}.cls-26{fill:url(#linear-gradient-14);}.cls-27{fill:url(#radial-gradient);}.cls-28{fill:url(#linear-gradient-15);}.cls-29{fill:url(#linear-gradient-16);}.cls-30{fill:#ec407a;}.cls-31{fill:#c4dfe8;}.cls-32{fill:#929bad;}.cls-33,.cls-41{fill:#ebfbff;}.cls-34{fill:#d32f2f;}.cls-35,.cls-38,.cls-40{opacity:0.8;}.cls-35{fill:url(#linear-gradient-17);}.cls-36{stroke-width:0.87px;stroke-dasharray:4.37;}.cls-37{fill:#26dfed;}.cls-38{fill:url(#linear-gradient-18);}.cls-39{fill:#b71a1a;}.cls-40{fill:url(#linear-gradient-19);}.cls-42{stroke-width:0.76px;stroke-dasharray:3.79;}.cls-43{fill:#6d4c41;}.cls-44{fill:#689f38;}.cls-45{fill:url(#linear-gradient-20);}.cls-46{fill:url(#linear-gradient-21);}.cls-47{fill:url(#linear-gradient-22);}.cls-48{fill:url(#linear-gradient-23);}.cls-49{fill:url(#linear-gradient-24);}.cls-50{fill:url(#linear-gradient-25);}.cls-51,.cls-54,.cls-56{opacity:0.7;}.cls-52,.cls-54{fill:#6fc9c5;}.cls-53{stroke:#f8fbff;stroke-linejoin:round;stroke-width:0.53px;}.cls-55,.cls-56{fill:#ffee58;}.cls-57{fill:#88a6b7;}.cls-58{fill:url(#linear-gradient-26);}.cls-59{fill:url(#linear-gradient-27);}.cls-60{fill:url(#linear-gradient-28);}.cls-61{fill:url(#linear-gradient-29);}.cls-62{fill:url(#linear-gradient-30);}.cls-63{fill:url(#linear-gradient-31);}.cls-64{fill:url(#linear-gradient-32);}.cls-65{fill:url(#linear-gradient-33);}.cls-66{fill:url(#linear-gradient-34);}.cls-67{fill:url(#linear-gradient-35);}.cls-68{fill:url(#linear-gradient-36);}</style><linearGradient id="linear-gradient" x1="20.55" y1="171.69" x2="61.38" y2="171.69" gradientUnits="userSpaceOnUse"><stop offset="0" stop-color="#ad68a4"/><stop offset="0.11" stop-color="#b170a9" stop-opacity="0.95"/><stop offset="0.3" stop-color="#bd86b6" stop-opacity="0.8"/><stop offset="0.54" stop-color="#d0a9cb" stop-opacity="0.57"/><stop offset="0.81" stop-color="#ebdae9" stop-opacity="0.25"/><stop offset="1" stop-color="#fff" stop-opacity="0"/></linearGradient><linearGradient id="linear-gradient-2" x1="36.89" y1="182.89" x2="77.72" y2="182.89" xlink:href="#linear-gradient"/><linearGradient id="linear-gradient-3" x1="46.25" y1="174.41" x2="87.09" y2="174.41" xlink:href="#linear-gradient"/><linearGradient id="linear-gradient-4" x1="28.65" y1="165.33" x2="177.33" y2="165.33" xlink:href="#linear-gradient"/><linearGradient id="linear-gradient-5" x1="90.2" y1="154.77" x2="37.66" y2="154.77" gradientUnits="userSpaceOnUse"><stop offset="0" stop-color="#e089d3" stop-opacity="0"/><stop offset="1" stop-color="#e089d3"/></linearGradient><linearGradient id="linear-gradient-6" x1="82.19" y1="151.93" x2="44.37" y2="132.67" xlink:href="#linear-gradient-5"/><linearGradient id="linear-gradient-7" x1="90.2" y1="144.85" x2="37.66" y2="144.85" xlink:href="#linear-gradient-5"/><linearGradient id="linear-gradient-8" x1="78.31" y1="149.18" x2="63.46" y2="115.07" xlink:href="#linear-gradient-5"/><linearGradient id="linear-gradient-9" x1="80.18" y1="134.32" x2="25.17" y2="134.32" xlink:href="#linear-gradient-5"/><linearGradient id="linear-gradient-10" x1="76.17" y1="133.36" x2="64.57" y2="106.44" xlink:href="#linear-gradient-5"/><linearGradient id="linear-gradient-11" x1="85.64" y1="120.74" x2="30.63" y2="120.74" xlink:href="#linear-gradient-5"/><linearGradient id="linear-gradient-12" x1="156.08" y1="299.03" x2="248.7" y2="96.39" xlink:href="#linear-gradient"/><linearGradient id="linear-gradient-13" x1="141.34" y1="167.88" x2="226.69" y2="82.53" gradientUnits="userSpaceOnUse"><stop offset="0" stop-color="#fff"/><stop offset="0.16" stop-color="#d8dbdd" stop-opacity="0.79"/><stop offset="0.39" stop-color="#a4aab0" stop-opacity="0.51"/><stop offset="0.6" stop-color="#7b838c" stop-opacity="0.29"/><stop offset="0.78" stop-color="#5d6772" stop-opacity="0.13"/><stop offset="0.92" stop-color="#4b5562" stop-opacity="0.04"/><stop offset="1" stop-color="#444f5c" stop-opacity="0"/></linearGradient><linearGradient id="linear-gradient-14" x1="125.2" y1="151.55" x2="211.17" y2="65.58" xlink:href="#linear-gradient-13"/><radialGradient id="radial-gradient" cx="125.56" cy="167.51" r="76.17" gradientUnits="userSpaceOnUse"><stop offset="0" stop-color="#fff"/><stop offset="1" stop-color="#fff" stop-opacity="0"/></radialGradient><linearGradient id="linear-gradient-15" x1="128.56" y1="206.32" x2="128.56" y2="169.75" gradientUnits="userSpaceOnUse"><stop offset="0" stop-color="#fff" stop-opacity="0"/><stop offset="1" stop-color="#ffb300"/></linearGradient><linearGradient id="linear-gradient-16" x1="119.71" y1="201.3" x2="143.07" y2="172.2" xlink:href="#linear-gradient-15"/><linearGradient id="linear-gradient-17" x1="117.69" y1="84.31" x2="158.5" y2="84.31" gradientUnits="userSpaceOnUse"><stop offset="0" stop-color="#fff" stop-opacity="0"/><stop offset="1" stop-color="#662d8d"/></linearGradient><linearGradient id="linear-gradient-18" x1="108.73" y1="67.3" x2="108.73" y2="132.15" xlink:href="#linear-gradient-17"/><linearGradient id="linear-gradient-19" x1="147.18" y1="130.2" x2="167.05" y2="130.2" xlink:href="#linear-gradient-17"/><linearGradient id="linear-gradient-20" x1="-4.46" y1="195.06" x2="36.37" y2="195.06" xlink:href="#linear-gradient"/><linearGradient id="linear-gradient-21" x1="217.43" y1="270.7" x2="234.04" y2="270.7" xlink:href="#linear-gradient"/><linearGradient id="linear-gradient-22" x1="236.73" y1="257.83" x2="261.26" y2="257.83" xlink:href="#linear-gradient"/><linearGradient id="linear-gradient-23" x1="23.56" y1="225.42" x2="40.16" y2="225.42" xlink:href="#linear-gradient"/><linearGradient id="linear-gradient-24" x1="40.41" y1="233.32" x2="57.02" y2="233.32" xlink:href="#linear-gradient"/><linearGradient id="linear-gradient-25" x1="198.62" y1="270.7" x2="215.22" y2="270.7" xlink:href="#linear-gradient"/><linearGradient id="linear-gradient-26" x1="45.67" y1="174.5" x2="53.08" y2="180.38" gradientUnits="userSpaceOnUse"><stop offset="0" stop-color="#fff" stop-opacity="0"/><stop offset="1" stop-color="#abc3d3"/></linearGradient><linearGradient id="linear-gradient-27" x1="54.22" y1="175.46" x2="54.22" y2="186.63" xlink:href="#linear-gradient-26"/><linearGradient id="linear-gradient-28" x1="38.04" y1="226.03" x2="44.48" y2="231.13" xlink:href="#linear-gradient-26"/><linearGradient id="linear-gradient-29" x1="45.47" y1="226.87" x2="45.47" y2="236.56" xlink:href="#linear-gradient-26"/><linearGradient id="linear-gradient-30" x1="198.69" y1="261.02" x2="206.1" y2="266.91" gradientTransform="matrix(-1, 0, 0, 1, 406.13, 0)" xlink:href="#linear-gradient-26"/><linearGradient id="linear-gradient-31" x1="207.24" y1="261.99" x2="207.24" y2="273.16" gradientTransform="matrix(-1, 0, 0, 1, 406.13, 0)" xlink:href="#linear-gradient-26"/><linearGradient id="linear-gradient-32" x1="85.55" y1="266.38" x2="102.15" y2="266.38" xlink:href="#linear-gradient"/><linearGradient id="linear-gradient-33" x1="93.25" y1="273.48" x2="130.15" y2="273.48" xlink:href="#linear-gradient"/><linearGradient id="linear-gradient-34" x1="92.94" y1="272.98" x2="137.16" y2="272.98" xlink:href="#linear-gradient"/><linearGradient id="linear-gradient-35" x1="303.14" y1="265.95" x2="308.9" y2="270.52" gradientTransform="matrix(-1, 0, 0, 1, 406.13, 0)" xlink:href="#linear-gradient-26"/><linearGradient id="linear-gradient-36" x1="309.79" y1="266.7" x2="309.79" y2="275.38" gradientTransform="matrix(-1, 0, 0, 1, 406.13, 0)" xlink:href="#linear-gradient-26"/></defs><title>Asset 2</title><g class="cls-1"><g id="Layer_2" data-name="Layer 2"><g id="Object"><path class="cls-2" d="M48.87,171.69c0,2-3.72,3.59-8.3,3.59s-8.31-1.61-8.31-3.59,3.72-3.58,8.31-3.58S48.87,169.71,48.87,171.69Z"/><ellipse class="cls-3" cx="56.91" cy="182.89" rx="8.3" ry="3.59"/><ellipse class="cls-4" cx="66.27" cy="174.41" rx="8.3" ry="3.59"/><ellipse class="cls-5" cx="101.54" cy="165.33" rx="30.23" ry="13.05"/><path class="cls-6" d="M95.23,147.56a19.38,19.38,0,0,0-4.11-3.14c-9.9-5.71-25.94-5.71-35.83,0a19.13,19.13,0,0,0-4.11,3.14H47.87v7.21c0,3.74,2.47,7.48,7.42,10.34,9.89,5.71,25.93,5.71,35.83,0,4.94-2.86,7.42-6.6,7.42-10.34h0v-7.21Z"/><path class="cls-7" d="M95.23,147.56a19.38,19.38,0,0,0-4.11-3.14c-9.9-5.71-25.94-5.71-35.83,0a19.13,19.13,0,0,0-4.11,3.14H47.87v7.21c0,3.74,2.47,7.48,7.42,10.34,9.89,5.71,25.93,5.71,35.83,0,4.94-2.86,7.42-6.6,7.42-10.34h0v-7.21Z"/><ellipse class="cls-8" cx="73.2" cy="147.35" rx="25.34" ry="14.63"/><path class="cls-6" d="M60.56,140.06c7-4,18.3-4,25.28,0s7,10.56,0,14.59-18.3,4-25.28,0-7-10.56,0-14.59m-1.43-.83c-7.75,4.48-7.75,11.77,0,16.25s20.38,4.48,28.14,0,7.76-11.77,0-16.25-20.38-4.48-28.14,0Z"/><path class="cls-6" d="M69.14,144.29a7.91,7.91,0,0,1,2.93-.57,6.29,6.29,0,0,1,1.2.11,3.65,3.65,0,0,1,.88.28c.12.06.17.12.16.21a.26.26,0,0,1-.16.2l-.93.54a1.13,1.13,0,0,1-.42.15,2.26,2.26,0,0,1-.44,0,3.93,3.93,0,0,0-1.18,0,4,4,0,0,0-1.45.55,3,3,0,0,0-.58.42,1.34,1.34,0,0,0-.33.43.54.54,0,0,0,0,.41.65.65,0,0,0,.32.34,1.5,1.5,0,0,0,.64.2,2.7,2.7,0,0,0,.81-.08,9.61,9.61,0,0,0,1.09-.33l1.52-.56a14.6,14.6,0,0,1,1.75-.54,7.28,7.28,0,0,1,1.46-.2,4.64,4.64,0,0,1,1.26.14,5.13,5.13,0,0,1,1.12.47,2.36,2.36,0,0,1,.77.68,1.36,1.36,0,0,1,.23.8,1.72,1.72,0,0,1-.33.87,3.66,3.66,0,0,1-.9.91l.9.52c.1.06.15.12.15.21a.23.23,0,0,1-.15.2l-1.07.62a.76.76,0,0,1-.72,0l-.9-.52a8.86,8.86,0,0,1-1.43.47,8.46,8.46,0,0,1-1.46.22,6.09,6.09,0,0,1-1.36-.06A4,4,0,0,1,71.3,151c-.12-.06-.17-.13-.16-.21a.29.29,0,0,1,.16-.21l.93-.53a1.16,1.16,0,0,1,.42-.16,1.71,1.71,0,0,1,.44,0l.57.07a3.77,3.77,0,0,0,.66,0,6.1,6.1,0,0,0,.79-.2,6.32,6.32,0,0,0,.93-.44,5.5,5.5,0,0,0,.71-.48,2.2,2.2,0,0,0,.45-.49.66.66,0,0,0,.1-.46.57.57,0,0,0-.33-.39,1.26,1.26,0,0,0-.67-.17,3.12,3.12,0,0,0-.88.14c-.34.09-.74.23-1.19.39l-1.59.57a11.23,11.23,0,0,1-1.54.45,6.74,6.74,0,0,1-1.36.17,4.51,4.51,0,0,1-1.23-.16,4.65,4.65,0,0,1-1.19-.5,2.19,2.19,0,0,1-.76-.66,1.43,1.43,0,0,1-.24-.78,1.58,1.58,0,0,1,.26-.82,3.45,3.45,0,0,1,.74-.82l-.91-.52a.22.22,0,0,1,0-.41l1.08-.62a.77.77,0,0,1,.72,0Z"/><ellipse class="cls-9" cx="73.2" cy="147.35" rx="25.34" ry="14.63"/><path class="cls-6" d="M95.23,137.65a19.38,19.38,0,0,0-4.11-3.14c-9.9-5.71-25.94-5.71-35.83,0a19.13,19.13,0,0,0-4.11,3.14H47.87v7.21c0,3.74,2.47,7.48,7.42,10.34,9.89,5.71,25.93,5.71,35.83,0,4.94-2.86,7.42-6.6,7.42-10.34h0v-7.21Z"/><path class="cls-10" d="M95.23,137.65a19.38,19.38,0,0,0-4.11-3.14c-9.9-5.71-25.94-5.71-35.83,0a19.13,19.13,0,0,0-4.11,3.14H47.87v7.21c0,3.74,2.47,7.48,7.42,10.34,9.89,5.71,25.93,5.71,35.83,0,4.94-2.86,7.42-6.6,7.42-10.34h0v-7.21Z"/><path class="cls-8" d="M91.12,127.1c9.89,5.71,9.89,15,0,20.68s-25.94,5.72-35.83,0-9.9-15,0-20.69S81.22,121.39,91.12,127.1Z"/><path class="cls-6" d="M60.56,130.14c7-4,18.3-4,25.28,0s7,10.57,0,14.6-18.3,4-25.28,0-7-10.57,0-14.6m-1.43-.82c-7.75,4.48-7.75,11.77,0,16.24s20.38,4.48,28.14,0,7.76-11.76,0-16.24-20.38-4.48-28.14,0Z"/><path class="cls-6" d="M69.14,134.38a7.91,7.91,0,0,1,2.93-.57,5.57,5.57,0,0,1,1.2.11,3.26,3.26,0,0,1,.88.28c.12.05.17.12.16.2a.27.27,0,0,1-.16.21l-.93.54a1.09,1.09,0,0,1-.42.14,2.2,2.2,0,0,1-.44,0,3.88,3.88,0,0,0-2.63.56,3.49,3.49,0,0,0-.58.43,1.24,1.24,0,0,0-.33.43.54.54,0,0,0,0,.41.65.65,0,0,0,.32.34,1.65,1.65,0,0,0,.64.2,2.7,2.7,0,0,0,.81-.08,8.12,8.12,0,0,0,1.09-.34l1.52-.55a14.6,14.6,0,0,1,1.75-.54,6.63,6.63,0,0,1,1.46-.2,4.28,4.28,0,0,1,1.26.14,4.69,4.69,0,0,1,1.12.47,2.34,2.34,0,0,1,.77.67,1.38,1.38,0,0,1,.23.8,1.72,1.72,0,0,1-.33.88,4,4,0,0,1-.9.91l.9.52a.23.23,0,0,1,.15.2.25.25,0,0,1-.15.21l-1.07.62a.8.8,0,0,1-.36.09.69.69,0,0,1-.36-.09l-.9-.52a10,10,0,0,1-1.43.47,9.56,9.56,0,0,1-1.46.22,6.74,6.74,0,0,1-1.36-.07,4,4,0,0,1-1.19-.37c-.12-.06-.17-.13-.16-.21a.29.29,0,0,1,.16-.21l.93-.54a1.34,1.34,0,0,1,.42-.15,1.68,1.68,0,0,1,.44,0,3.42,3.42,0,0,0,.57.07,2.49,2.49,0,0,0,.66,0,4,4,0,0,0,.79-.2,5.32,5.32,0,0,0,.93-.43c.26-.16.5-.32.71-.48a2.2,2.2,0,0,0,.45-.49.67.67,0,0,0,.1-.46.59.59,0,0,0-.33-.4,1.36,1.36,0,0,0-.67-.17,3.6,3.6,0,0,0-.88.15,12.45,12.45,0,0,0-1.19.39l-1.59.57a15,15,0,0,1-1.54.45,6.06,6.06,0,0,1-1.36.16,4.15,4.15,0,0,1-1.23-.15,4.65,4.65,0,0,1-1.19-.5,2.11,2.11,0,0,1-.76-.67,1.37,1.37,0,0,1-.24-.77,1.55,1.55,0,0,1,.26-.82,3.45,3.45,0,0,1,.74-.82l-.91-.52a.23.23,0,0,1,0-.42l1.08-.62a.85.85,0,0,1,.72,0Z"/><path class="cls-11" d="M91.12,127.1c9.89,5.71,9.89,15,0,20.68s-25.94,5.72-35.83,0-9.9-15,0-20.69S81.22,121.39,91.12,127.1Z"/><path class="cls-6" d="M95.41,127.12a19,19,0,0,0-4.1-3.14c-9.9-5.71-25.94-5.71-35.83,0a18.81,18.81,0,0,0-4.11,3.14H48.05v7.2c0,3.75,2.48,7.49,7.42,10.35,9.9,5.71,25.94,5.71,35.84,0,4.94-2.86,7.42-6.6,7.42-10.35h0v-7.2Z"/><path class="cls-12" d="M95.41,127.12a19,19,0,0,0-4.1-3.14c-9.9-5.71-25.94-5.71-35.83,0a18.81,18.81,0,0,0-4.11,3.14H48.05v7.2c0,3.75,2.48,7.49,7.42,10.35,9.9,5.71,25.94,5.71,35.84,0,4.94-2.86,7.42-6.6,7.42-10.35h0v-7.2Z"/><ellipse class="cls-8" cx="73.39" cy="126.91" rx="25.34" ry="14.63"/><path class="cls-6" d="M60.75,119.61c7-4,18.3-4,25.28,0s7,10.57,0,14.6-18.3,4-25.28,0-7-10.57,0-14.6m-1.43-.82c-7.76,4.48-7.76,11.76,0,16.24s20.38,4.48,28.14,0,7.76-11.76,0-16.24-20.38-4.48-28.14,0Z"/><path class="cls-6" d="M69.32,123.85a7.62,7.62,0,0,1,1.52-.44,8,8,0,0,1,1.42-.14,6.29,6.29,0,0,1,1.2.11,4.16,4.16,0,0,1,.88.28c.11.06.17.13.16.21a.29.29,0,0,1-.16.21l-.93.53a1,1,0,0,1-.42.15,2.23,2.23,0,0,1-.44,0,4.28,4.28,0,0,0-1.18,0,4,4,0,0,0-1.45.55,3.48,3.48,0,0,0-.58.42,1.58,1.58,0,0,0-.34.44.53.53,0,0,0,0,.41.63.63,0,0,0,.32.33,1.47,1.47,0,0,0,.64.21,3,3,0,0,0,.8-.08c.31-.08.68-.19,1.1-.34l1.52-.55a14.25,14.25,0,0,1,1.75-.55,7.28,7.28,0,0,1,1.46-.2,4.16,4.16,0,0,1,1.25.15,4.37,4.37,0,0,1,1.12.47,2.15,2.15,0,0,1,.77.67,1.32,1.32,0,0,1,.24.8,1.85,1.85,0,0,1-.33.88,3.82,3.82,0,0,1-.9.9l.9.52a.22.22,0,0,1,0,.42l-1.07.62a.85.85,0,0,1-.72,0l-.9-.52a8.64,8.64,0,0,1-1.44.46A8.35,8.35,0,0,1,74,131a6.21,6.21,0,0,1-1.37-.06,3.72,3.72,0,0,1-1.18-.38c-.12-.05-.17-.12-.16-.2a.26.26,0,0,1,.16-.21l.93-.54a1.13,1.13,0,0,1,.42-.15,1.34,1.34,0,0,1,.44,0,4.67,4.67,0,0,0,.57.07,2.51,2.51,0,0,0,.66,0,4.82,4.82,0,0,0,.79-.2,5,5,0,0,0,.92-.44,5.14,5.14,0,0,0,.71-.47,1.9,1.9,0,0,0,.46-.5.7.7,0,0,0,.1-.45.58.58,0,0,0-.34-.4,1.3,1.3,0,0,0-.66-.17,3.53,3.53,0,0,0-.88.14c-.34.1-.74.23-1.19.4l-1.59.57a15,15,0,0,1-1.54.45,6.7,6.7,0,0,1-1.36.16,5.07,5.07,0,0,1-1.24-.15,5,5,0,0,1-1.18-.5,2.11,2.11,0,0,1-.76-.67,1.37,1.37,0,0,1-.24-.77,1.61,1.61,0,0,1,.26-.83,3.24,3.24,0,0,1,.74-.81l-.91-.52a.23.23,0,0,1,0-.42l1.08-.62a.74.74,0,0,1,.36-.08.72.72,0,0,1,.35.08Z"/><ellipse class="cls-13" cx="73.39" cy="126.91" rx="25.34" ry="14.63"/><path class="cls-6" d="M100.88,113.54a19.38,19.38,0,0,0-4.11-3.14c-9.9-5.71-25.94-5.71-35.83,0a19.13,19.13,0,0,0-4.11,3.14H53.52v7.2c0,3.75,2.47,7.49,7.42,10.35,9.89,5.71,25.93,5.71,35.83,0,4.94-2.86,7.42-6.6,7.42-10.35h0v-7.2Z"/><path class="cls-14" d="M100.88,113.54a19.38,19.38,0,0,0-4.11-3.14c-9.9-5.71-25.94-5.71-35.83,0a19.13,19.13,0,0,0-4.11,3.14H53.52v7.2c0,3.75,2.47,7.49,7.42,10.35,9.89,5.71,25.93,5.71,35.83,0,4.94-2.86,7.42-6.6,7.42-10.35h0v-7.2Z"/><ellipse class="cls-8" cx="78.85" cy="113.33" rx="25.34" ry="14.63"/><path class="cls-6" d="M66.21,106c7-4,18.3-4,25.28,0s7,10.57,0,14.6-18.3,4-25.28,0-7-10.57,0-14.6m-1.43-.82C57,109.69,57,117,64.78,121.45s20.38,4.48,28.14,0,7.76-11.76,0-16.24-20.38-4.48-28.14,0Z"/><path class="cls-6" d="M74.79,110.27a8.13,8.13,0,0,1,1.52-.44,7.87,7.87,0,0,1,1.41-.13,5.57,5.57,0,0,1,1.2.11,3.26,3.26,0,0,1,.88.28c.12,0,.17.12.16.2a.27.27,0,0,1-.16.21l-.93.54a1.09,1.09,0,0,1-.42.14,2.2,2.2,0,0,1-.44,0,3.88,3.88,0,0,0-2.63.56,4.16,4.16,0,0,0-.58.42,1.37,1.37,0,0,0-.33.44.54.54,0,0,0,0,.41.65.65,0,0,0,.32.34,1.65,1.65,0,0,0,.64.2,2.7,2.7,0,0,0,.81-.08,8.12,8.12,0,0,0,1.09-.34l1.52-.55a17,17,0,0,1,1.75-.55,7.23,7.23,0,0,1,1.46-.19,4.28,4.28,0,0,1,1.26.14,4.69,4.69,0,0,1,1.12.47,2.34,2.34,0,0,1,.77.67,1.38,1.38,0,0,1,.23.8,1.72,1.72,0,0,1-.33.88,4,4,0,0,1-.9.91l.9.52a.23.23,0,0,1,.15.2.25.25,0,0,1-.15.21l-1.07.62a.85.85,0,0,1-.72,0l-.9-.52a10,10,0,0,1-1.43.47,8.42,8.42,0,0,1-1.46.21,6.09,6.09,0,0,1-1.36-.06A3.69,3.69,0,0,1,77,117c-.12,0-.17-.12-.16-.2a.29.29,0,0,1,.16-.21l.93-.54a1.34,1.34,0,0,1,.42-.15,1.68,1.68,0,0,1,.44,0,4.93,4.93,0,0,0,.57.07,2.49,2.49,0,0,0,.66,0,4,4,0,0,0,.79-.2,5.32,5.32,0,0,0,.93-.43c.26-.16.5-.32.71-.48a2.2,2.2,0,0,0,.45-.49.67.67,0,0,0,.1-.46.59.59,0,0,0-.33-.4,1.36,1.36,0,0,0-.67-.17,3.17,3.17,0,0,0-.88.15,12.45,12.45,0,0,0-1.19.39l-1.59.57a15,15,0,0,1-1.54.45,6.06,6.06,0,0,1-1.36.16,4.15,4.15,0,0,1-1.23-.15,4.65,4.65,0,0,1-1.19-.5,2.11,2.11,0,0,1-.76-.67,1.37,1.37,0,0,1-.24-.77,1.55,1.55,0,0,1,.26-.82,3.27,3.27,0,0,1,.74-.82l-.91-.52a.23.23,0,0,1,0-.42l1.08-.62a.85.85,0,0,1,.72,0Z"/><path class="cls-15" d="M153,268.67H180a11.83,11.83,0,0,0,6-1.67l83.92-50.07a6.58,6.58,0,0,0-.31-11.48L150,142.62Z"/><path class="cls-16" d="M3.42,64.9a5.41,5.41,0,0,1,.65.45,8.47,8.47,0,0,1-.41-2.48c0-3,2.13-4.27,4.75-2.75a10.52,10.52,0,0,1,4.76,8.24c0,.18,0,.35,0,.52a4.39,4.39,0,0,1,.77.36,9.18,9.18,0,0,1,4.16,7.21,4.71,4.71,0,0,1-.18,1.31l9.53,8.89-24-13.86A7.55,7.55,0,0,1,0,66.87C0,64.69,1.53,63.81,3.42,64.9Z"/><path class="cls-16" d="M59.89,62.71a3.42,3.42,0,1,1-3.41,3.42,3.41,3.41,0,0,1,3.41-3.42m0-1.08a4.5,4.5,0,1,0,4.5,4.5,4.5,4.5,0,0,0-4.5-4.5Z"/><path class="cls-16" d="M226,101.72a3.42,3.42,0,1,1-3.41-3.42A3.41,3.41,0,0,1,226,101.72Z"/><circle class="cls-17" cx="172.46" cy="43.18" r="3.19"/><circle class="cls-17" cx="66.55" cy="115.76" r="3.19"/><circle class="cls-17" cx="187.3" cy="21.25" r="7.72" transform="translate(39.83 138.66) rotate(-45)"/><circle class="cls-17" cx="79.61" cy="44.55" r="5.83"/><line class="cls-18" x1="257.97" y1="53.56" x2="257.97" y2="58.82"/><line class="cls-18" x1="257.97" y1="67.92" x2="257.97" y2="73.18"/><line class="cls-18" x1="267.78" y1="63.37" x2="262.52" y2="63.37"/><line class="cls-18" x1="253.43" y1="63.37" x2="248.16" y2="63.37"/><line class="cls-18" x1="251.04" y1="56.43" x2="254.76" y2="60.15"/><line class="cls-18" x1="261.19" y1="66.59" x2="264.91" y2="70.31"/><line class="cls-18" x1="264.91" y1="56.43" x2="261.19" y2="60.15"/><line class="cls-18" x1="254.76" y1="66.59" x2="251.04" y2="70.31"/><line class="cls-18" x1="32.95" y1="29.67" x2="32.95" y2="34.93"/><line class="cls-18" x1="32.95" y1="44.03" x2="32.95" y2="49.29"/><line class="cls-18" x1="42.76" y1="39.48" x2="37.5" y2="39.48"/><line class="cls-18" x1="28.41" y1="39.48" x2="23.15" y2="39.48"/><line class="cls-18" x1="26.02" y1="32.54" x2="29.74" y2="36.26"/><line class="cls-18" x1="36.17" y1="42.69" x2="39.89" y2="46.41"/><line class="cls-18" x1="39.89" y1="32.54" x2="36.17" y2="36.26"/><line class="cls-18" x1="29.74" y1="42.69" x2="26.02" y2="46.41"/><path class="cls-19" d="M118.93,157.51a4.28,4.28,0,0,1-1.93,3.36c-1.07.61-1.94.11-1.94-1.12A4.26,4.26,0,0,1,117,156.4C118.07,155.78,118.93,156.28,118.93,157.51Z"/><polygon class="cls-19" points="118.27 156.22 223.98 217.18 221.28 221.93 115.62 160.99 118.27 156.22"/><path class="cls-20" d="M224.53,218.42a4.25,4.25,0,0,1-1.93,3.35c-1.07.62-1.94.12-1.94-1.11a4.29,4.29,0,0,1,1.94-3.36C223.67,216.69,224.53,217.19,224.53,218.42Z"/><path class="cls-21" d="M220.68,210.56l4.47-2.46v4a6.55,6.55,0,0,1-3.39,5.73l-1.08.6Z"/><polygon class="cls-22" points="220.68 210.56 220.68 218.43 115.06 157.45 115.06 149.59 220.68 210.56"/><path class="cls-23" d="M225.38,120.64v4.11l-.22,83.35-4.48,2.47.25-90.37,1.86-1,1.84-1A5.75,5.75,0,0,1,225.38,120.64Z"/><path class="cls-21" d="M224.62,118.17l-1.84,1-1.86,1-105.62-61,1.28-.71a6.47,6.47,0,0,1,6.35.06l98,56.58,1.78,1A5.71,5.71,0,0,1,224.62,118.17Z"/><polygon class="cls-19" points="220.92 120.2 220.68 210.56 115.06 149.59 115.3 59.23 220.92 120.2"/><polygon class="cls-24" points="217.41 122.09 217.2 205.22 118.57 147.7 118.78 64.56 217.41 122.09"/><polygon class="cls-25" points="165.47 175.07 191.91 190.48 179.44 99.95 152.06 83.98 165.47 175.07"/><polygon class="cls-26" points="155.18 169.06 160.41 172.12 147.8 81.49 142.55 78.43 155.18 169.06"/><g class="cls-1"><polygon class="cls-22" points="220.66 221.23 153.05 260.52 47.16 199.38 114.77 160.09 220.66 221.23"/><path class="cls-23" d="M153.05,264v4.68a4,4,0,0,1-2-.52l0,0-.65-.38L46.93,208.05a4.28,4.28,0,0,1-2.13-3.72V201.5Z"/><path class="cls-23" d="M220.67,224.75v1.49a6.72,6.72,0,0,1-3.32,5.74l-60.86,35.31h0l-1.44.84,0,0a4,4,0,0,1-2,.52V264Z"/><polygon class="cls-21" points="153.05 260.52 153.05 263.99 44.81 201.5 47.16 199.38 153.05 260.52"/><polygon class="cls-21" points="220.66 221.23 220.68 224.75 153.05 263.99 153.05 260.52 220.66 221.23"/></g><g class="cls-1"><polygon class="cls-20" points="128.78 172.78 128.78 174.44 122.46 178.11 122.46 176.46 128.78 172.78"/><polygon class="cls-20" points="122.46 176.46 122.46 178.11 114.5 173.52 114.5 171.86 122.46 176.46"/><polygon class="cls-19" points="128.78 172.78 122.46 176.46 114.5 171.86 120.82 168.19 128.78 172.78"/></g><g class="cls-1"><polygon class="cls-20" points="120.23 177.87 120.23 179.53 113.92 183.2 113.92 181.54 120.23 177.87"/><polygon class="cls-20" points="113.92 181.54 113.92 183.2 105.85 178.55 105.85 176.89 113.92 181.54"/><polygon class="cls-19" points="120.23 177.87 113.92 181.54 105.85 176.89 112.17 173.22 120.23 177.87"/></g><g class="cls-1"><polygon class="cls-20" points="112.14 182.58 112.13 184.24 105.82 187.91 105.82 186.25 112.14 182.58"/><polygon class="cls-20" points="105.82 186.25 105.82 187.91 97.75 183.25 97.76 181.59 105.82 186.25"/><polygon class="cls-19" points="112.14 182.58 105.82 186.25 97.76 181.59 104.07 177.92 112.14 182.58"/></g><g class="cls-1"><polygon class="cls-20" points="135.68 176.77 135.67 178.43 129.36 182.1 129.36 180.44 135.68 176.77"/><polygon class="cls-20" points="129.36 180.44 129.36 182.1 124.05 179.03 124.06 177.38 129.36 180.44"/><polygon class="cls-19" points="135.68 176.77 129.36 180.44 124.06 177.38 130.37 173.7 135.68 176.77"/></g><g class="cls-1"><polygon class="cls-20" points="127.03 181.79 127.02 183.45 120.7 187.12 120.71 185.47 127.03 181.79"/><polygon class="cls-20" points="120.71 185.47 120.7 187.12 115.4 184.06 115.41 182.4 120.71 185.47"/><polygon class="cls-19" points="127.03 181.79 120.71 185.47 115.41 182.4 121.72 178.73 127.03 181.79"/></g><g class="cls-1"><polygon class="cls-20" points="118.93 186.5 118.92 188.16 112.61 191.83 112.61 190.17 118.93 186.5"/><polygon class="cls-20" points="112.61 190.17 112.61 191.83 107.3 188.77 107.31 187.11 112.61 190.17"/><polygon class="cls-19" points="118.93 186.5 112.61 190.17 107.31 187.11 113.62 183.44 118.93 186.5"/></g><g class="cls-1"><polygon class="cls-20" points="108.16 189.69 108.16 191.35 101.84 195.02 101.84 193.36 108.16 189.69"/><polygon class="cls-20" points="101.84 193.36 101.84 195.02 89.63 187.97 89.64 186.31 101.84 193.36"/><polygon class="cls-19" points="108.16 189.69 101.84 193.36 89.64 186.31 95.96 182.64 108.16 189.69"/></g><g class="cls-1"><polygon class="cls-20" points="92.82 190.61 92.82 192.27 86.5 195.94 86.5 194.28 92.82 190.61"/><polygon class="cls-20" points="86.5 194.28 86.5 195.94 81.2 192.88 81.2 191.22 86.5 194.28"/><polygon class="cls-19" points="92.82 190.61 86.5 194.28 81.2 191.22 87.52 187.54 92.82 190.61"/></g><g class="cls-1"><polygon class="cls-20" points="99.72 194.59 99.72 196.25 93.4 199.92 93.41 198.26 99.72 194.59"/><polygon class="cls-20" points="93.41 198.26 93.4 199.92 88.1 196.86 88.1 195.2 93.41 198.26"/><polygon class="cls-19" points="99.72 194.59 93.41 198.26 88.1 195.2 94.42 191.53 99.72 194.59"/></g><g class="cls-1"><polygon class="cls-20" points="142.58 180.75 142.57 182.41 136.26 186.08 136.26 184.42 142.58 180.75"/><polygon class="cls-20" points="136.26 184.42 136.26 186.08 130.95 183.02 130.96 181.36 136.26 184.42"/><polygon class="cls-19" points="142.58 180.75 136.26 184.42 130.96 181.36 137.28 177.69 142.58 180.75"/></g><g class="cls-1"><polygon class="cls-20" points="133.93 185.78 133.92 187.44 127.61 191.11 127.61 189.45 133.93 185.78"/><polygon class="cls-20" points="127.61 189.45 127.61 191.11 122.3 188.05 122.31 186.39 127.61 189.45"/><polygon class="cls-19" points="133.93 185.78 127.61 189.45 122.31 186.39 128.62 182.72 133.93 185.78"/></g><g class="cls-1"><polygon class="cls-20" points="125.83 190.48 125.82 192.14 119.51 195.81 119.51 194.15 125.83 190.48"/><polygon class="cls-20" points="119.51 194.15 119.51 195.81 114.2 192.75 114.21 191.09 119.51 194.15"/><polygon class="cls-19" points="125.83 190.48 119.51 194.15 114.21 191.09 120.53 187.42 125.83 190.48"/></g><g class="cls-1"><polygon class="cls-20" points="115.06 193.67 115.06 195.33 108.74 199 108.74 197.34 115.06 193.67"/><polygon class="cls-20" points="108.74 197.34 108.74 199 103.44 195.94 103.44 194.28 108.74 197.34"/><polygon class="cls-19" points="115.06 193.67 108.74 197.34 103.44 194.28 109.76 190.61 115.06 193.67"/></g><g class="cls-1"><polygon class="cls-20" points="149.39 184.68 149.39 186.34 143.07 190.01 143.07 188.35 149.39 184.68"/><polygon class="cls-20" points="143.07 188.35 143.07 190.01 137.77 186.95 137.77 185.29 143.07 188.35"/><polygon class="cls-19" points="149.39 184.68 143.07 188.35 137.77 185.29 144.09 181.62 149.39 184.68"/></g><g class="cls-1"><polygon class="cls-20" points="140.74 189.71 140.74 191.37 134.42 195.04 134.42 193.38 140.74 189.71"/><polygon class="cls-20" points="134.42 193.38 134.42 195.04 129.12 191.98 129.12 190.32 134.42 193.38"/><polygon class="cls-19" points="140.74 189.71 134.42 193.38 129.12 190.32 135.44 186.65 140.74 189.71"/></g><g class="cls-1"><polygon class="cls-20" points="132.64 194.42 132.64 196.08 126.32 199.75 126.33 198.09 132.64 194.42"/><polygon class="cls-20" points="126.33 198.09 126.32 199.75 121.02 196.69 121.02 195.03 126.33 198.09"/><polygon class="cls-19" points="132.64 194.42 126.33 198.09 121.02 195.03 127.34 191.35 132.64 194.42"/></g><g class="cls-1"><polygon class="cls-20" points="121.96 197.65 121.95 199.31 115.64 202.99 115.64 201.32 121.96 197.65"/><polygon class="cls-20" points="115.64 201.32 115.64 202.99 110.33 199.92 110.34 198.26 115.64 201.32"/><polygon class="cls-19" points="121.96 197.65 115.64 201.32 110.34 198.26 116.66 194.59 121.96 197.65"/></g><g class="cls-1"><polygon class="cls-20" points="156.29 188.67 156.29 190.33 149.97 194 149.98 192.34 156.29 188.67"/><polygon class="cls-20" points="149.98 192.34 149.97 194 144.67 190.94 144.67 189.28 149.98 192.34"/><polygon class="cls-19" points="156.29 188.67 149.98 192.34 144.67 189.28 150.99 185.6 156.29 188.67"/></g><g class="cls-1"><polygon class="cls-20" points="147.64 193.7 147.63 195.36 141.32 199.03 141.32 197.37 147.64 193.7"/><polygon class="cls-20" points="141.32 197.37 141.32 199.03 136.02 195.96 136.02 194.3 141.32 197.37"/><polygon class="cls-19" points="147.64 193.7 141.32 197.37 136.02 194.3 142.34 190.63 147.64 193.7"/></g><g class="cls-1"><polygon class="cls-20" points="139.54 198.4 139.54 200.06 133.22 203.73 133.23 202.07 139.54 198.4"/><polygon class="cls-20" points="133.23 202.07 133.22 203.73 127.92 200.67 127.92 199.01 133.23 202.07"/><polygon class="cls-19" points="139.54 198.4 133.23 202.07 127.92 199.01 134.24 195.34 139.54 198.4"/></g><g class="cls-1"><polygon class="cls-20" points="128.78 201.59 128.77 203.25 122.45 206.92 122.46 205.26 128.78 201.59"/><polygon class="cls-20" points="122.46 205.26 122.45 206.92 117.15 203.86 117.15 202.2 122.46 205.26"/><polygon class="cls-19" points="128.78 201.59 122.46 205.26 117.15 202.2 123.47 198.53 128.78 201.59"/></g><g class="cls-1"><polygon class="cls-20" points="163.63 192.9 163.62 194.56 157.3 198.23 157.31 196.57 163.63 192.9"/><polygon class="cls-20" points="157.31 196.57 157.3 198.23 152 195.17 152 193.51 157.31 196.57"/><polygon class="cls-19" points="163.63 192.9 157.31 196.57 152 193.51 158.32 189.84 163.63 192.9"/></g><g class="cls-1"><polygon class="cls-20" points="154.97 197.93 154.97 199.59 148.65 203.26 148.66 201.6 154.97 197.93"/><polygon class="cls-20" points="148.66 201.6 148.65 203.26 143.35 200.2 143.35 198.54 148.66 201.6"/><polygon class="cls-19" points="154.97 197.93 148.66 201.6 143.35 198.54 149.67 194.87 154.97 197.93"/></g><g class="cls-1"><polygon class="cls-20" points="146.88 202.63 146.87 204.29 140.56 207.97 140.56 206.31 146.88 202.63"/><polygon class="cls-20" points="140.56 206.31 140.56 207.97 135.25 204.9 135.26 203.24 140.56 206.31"/><polygon class="cls-19" points="146.88 202.63 140.56 206.31 135.26 203.24 141.57 199.57 146.88 202.63"/></g><g class="cls-1"><polygon class="cls-20" points="135.67 205.57 135.67 207.23 129.35 210.9 129.36 209.24 135.67 205.57"/><polygon class="cls-20" points="129.36 209.24 129.35 210.9 124.05 207.84 124.05 206.18 129.36 209.24"/><polygon class="cls-19" points="135.67 205.57 129.36 209.24 124.05 206.18 130.37 202.51 135.67 205.57"/></g><g class="cls-1"><polygon class="cls-20" points="171.04 197.18 171.04 198.84 164.72 202.51 164.73 200.85 171.04 197.18"/><polygon class="cls-20" points="164.73 200.85 164.72 202.51 159.41 199.45 159.42 197.79 164.73 200.85"/><polygon class="cls-19" points="171.04 197.18 164.73 200.85 159.42 197.79 165.74 194.12 171.04 197.18"/></g><g class="cls-1"><polygon class="cls-20" points="162.39 202.21 162.39 203.87 156.07 207.54 156.07 205.88 162.39 202.21"/><polygon class="cls-20" points="156.07 205.88 156.07 207.54 150.76 204.48 150.77 202.82 156.07 205.88"/><polygon class="cls-19" points="162.39 202.21 156.07 205.88 150.77 202.82 157.08 199.15 162.39 202.21"/></g><g class="cls-1"><polygon class="cls-20" points="154.29 206.92 154.29 208.58 147.97 212.25 147.98 210.59 154.29 206.92"/><polygon class="cls-20" points="147.98 210.59 147.97 212.25 142.67 209.18 142.67 207.52 147.98 210.59"/><polygon class="cls-19" points="154.29 206.92 147.98 210.59 142.67 207.52 148.99 203.85 154.29 206.92"/></g><g class="cls-1"><polygon class="cls-20" points="143.01 209.81 143 211.47 136.68 215.14 136.69 213.48 143.01 209.81"/><polygon class="cls-20" points="136.69 213.48 136.68 215.14 131.38 212.07 131.38 210.41 136.69 213.48"/><polygon class="cls-19" points="143.01 209.81 136.69 213.48 131.38 210.41 137.7 206.74 143.01 209.81"/></g><g class="cls-1"><polygon class="cls-20" points="149.91 213.79 149.9 215.45 143.58 219.12 143.59 217.46 149.91 213.79"/><polygon class="cls-20" points="143.59 217.46 143.58 219.12 138.28 216.06 138.28 214.4 143.59 217.46"/><polygon class="cls-19" points="149.91 213.79 143.59 217.46 138.28 214.4 144.6 210.73 149.91 213.79"/></g><g class="cls-1"><polygon class="cls-20" points="141.47 218.69 141.46 220.35 135.15 224.02 135.15 222.36 141.47 218.69"/><polygon class="cls-20" points="135.15 222.36 135.15 224.02 95 200.84 95 199.18 135.15 222.36"/><polygon class="cls-19" points="141.47 218.69 135.15 222.36 95 199.18 101.32 195.51 141.47 218.69"/></g><g class="cls-1"><polygon class="cls-20" points="178.03 201.22 178.02 202.88 171.71 206.55 171.71 204.89 178.03 201.22"/><polygon class="cls-20" points="171.71 204.89 171.71 206.55 166.4 203.49 166.41 201.83 171.71 204.89"/><polygon class="cls-19" points="178.03 201.22 171.71 204.89 166.41 201.83 172.72 198.16 178.03 201.22"/></g><g class="cls-1"><polygon class="cls-20" points="188.47 207.24 188.46 208.9 182.14 212.57 182.15 210.91 188.47 207.24"/><polygon class="cls-20" points="182.15 210.91 182.14 212.57 173.97 207.85 173.97 206.19 182.15 210.91"/><polygon class="cls-19" points="188.47 207.24 182.15 210.91 173.97 206.19 180.29 202.52 188.47 207.24"/></g><g class="cls-1"><polygon class="cls-20" points="169.38 206.25 169.37 207.91 163.06 211.58 163.06 209.92 169.38 206.25"/><polygon class="cls-20" points="163.06 209.92 163.06 211.58 157.75 208.51 157.76 206.85 163.06 209.92"/><polygon class="cls-19" points="169.38 206.25 163.06 209.92 157.76 206.85 164.07 203.18 169.38 206.25"/><polygon class="cls-20" points="179.81 212.27 179.81 213.93 171.71 218.64 171.72 216.98 179.81 212.27"/><polygon class="cls-20" points="171.72 216.98 171.71 218.64 169.52 219.91 169.53 218.25 171.72 216.98"/><polygon class="cls-20" points="169.53 218.25 169.52 219.91 165.4 222.31 165.4 220.65 169.53 218.25"/><polygon class="cls-20" points="165.4 220.65 165.4 222.31 153.19 215.26 153.19 213.6 165.4 220.65"/><polygon class="cls-19" points="179.81 212.27 171.72 216.98 169.53 218.25 165.4 220.65 153.19 213.6 159.51 209.93 165.61 213.45 173.71 208.75 179.81 212.27"/></g><g class="cls-1"><polygon class="cls-20" points="195.28 211.18 195.27 212.84 188.96 216.51 188.96 214.85 195.28 211.18"/><polygon class="cls-20" points="188.96 214.85 188.96 216.51 183.65 213.44 183.66 211.78 188.96 214.85"/><polygon class="cls-19" points="195.28 211.18 188.96 214.85 183.66 211.78 189.97 208.11 195.28 211.18"/></g><g class="cls-1"><polygon class="cls-20" points="186.63 216.21 186.62 217.87 180.31 221.53 180.31 219.88 186.63 216.21"/><polygon class="cls-20" points="180.31 219.88 180.31 221.53 175 218.47 175.01 216.81 180.31 219.88"/><polygon class="cls-19" points="186.63 216.21 180.31 219.88 175.01 216.81 181.32 213.14 186.63 216.21"/></g><g class="cls-1"><polygon class="cls-20" points="178.53 220.91 178.52 222.57 172.21 226.24 172.21 224.58 178.53 220.91"/><polygon class="cls-20" points="172.21 224.58 172.21 226.24 166.9 223.18 166.91 221.52 172.21 224.58"/><polygon class="cls-19" points="178.53 220.91 172.21 224.58 166.91 221.52 173.22 217.85 178.53 220.91"/></g><g class="cls-1"><polygon class="cls-20" points="202.7 215.46 202.69 217.12 196.37 220.79 196.38 219.13 202.7 215.46"/><polygon class="cls-20" points="196.38 219.13 196.37 220.79 191.07 217.73 191.07 216.07 196.38 219.13"/><polygon class="cls-19" points="202.7 215.46 196.38 219.13 191.07 216.07 197.39 212.4 202.7 215.46"/></g><g class="cls-1"><polygon class="cls-20" points="194.04 220.49 194.04 222.15 187.72 225.82 187.73 224.16 194.04 220.49"/><polygon class="cls-20" points="187.73 224.16 187.72 225.82 182.42 222.75 182.42 221.09 187.73 224.16"/><polygon class="cls-19" points="194.04 220.49 187.73 224.16 182.42 221.09 188.74 217.43 194.04 220.49"/></g><g class="cls-1"><polygon class="cls-20" points="185.95 225.19 185.94 226.85 179.63 230.52 179.63 228.86 185.95 225.19"/><polygon class="cls-20" points="179.63 228.86 179.63 230.52 174.32 227.46 174.33 225.8 179.63 228.86"/><polygon class="cls-19" points="185.95 225.19 179.63 228.86 174.33 225.8 180.64 222.13 185.95 225.19"/></g><g class="cls-1"><polygon class="cls-20" points="163.6 221.69 163.59 223.35 157.28 227.03 157.28 225.37 163.6 221.69"/><polygon class="cls-20" points="157.28 225.37 157.28 227.03 145.07 219.98 145.08 218.32 157.28 225.37"/><polygon class="cls-19" points="163.6 221.69 157.28 225.37 145.08 218.32 151.39 214.65 163.6 221.69"/></g><g class="cls-1"><polygon class="cls-20" points="148.26 222.61 148.25 224.27 141.94 227.94 141.94 226.28 148.26 222.61"/><polygon class="cls-20" points="141.94 226.28 141.94 227.94 136.63 224.88 136.64 223.22 141.94 226.28"/><polygon class="cls-19" points="148.26 222.61 141.94 226.28 136.64 223.22 142.95 219.55 148.26 222.61"/></g><g class="cls-1"><polygon class="cls-20" points="155.16 226.6 155.15 228.26 148.84 231.93 148.84 230.27 155.16 226.6"/><polygon class="cls-20" points="148.84 230.27 148.84 231.93 143.53 228.87 143.54 227.21 148.84 230.27"/><polygon class="cls-19" points="155.16 226.6 148.84 230.27 143.54 227.21 149.85 223.54 155.16 226.6"/></g><g class="cls-1"><polygon class="cls-20" points="170.41 225.63 170.41 227.29 164.09 230.96 164.09 229.3 170.41 225.63"/><polygon class="cls-20" points="164.09 229.3 164.09 230.96 158.78 227.9 158.79 226.24 164.09 229.3"/><polygon class="cls-19" points="170.41 225.63 164.09 229.3 158.79 226.24 165.11 222.56 170.41 225.63"/></g><g class="cls-1"><polygon class="cls-20" points="161.97 230.53 161.97 232.19 155.65 235.86 155.66 234.2 161.97 230.53"/><polygon class="cls-20" points="155.66 234.2 155.65 235.86 150.35 232.8 150.35 231.14 155.66 234.2"/><polygon class="cls-19" points="161.97 230.53 155.66 234.2 150.35 231.14 156.67 227.47 161.97 230.53"/></g><g class="cls-1"><polygon class="cls-20" points="169.13 234.67 169.13 236.33 162.81 240 162.82 238.34 169.13 234.67"/><polygon class="cls-20" points="162.82 238.34 162.81 240 157.51 236.93 157.51 235.27 162.82 238.34"/><polygon class="cls-19" points="169.13 234.67 162.82 238.34 157.51 235.27 163.83 231.6 169.13 234.67"/></g><g class="cls-1"><path class="cls-23" d="M124.52,224.48l-11,6.4a4.21,4.21,0,0,1-4.22,0L88.15,218.68a.66.66,0,0,1,0-1.13l12.9-7.5a3,3,0,0,1,3,0l20.49,11.83A1.5,1.5,0,0,1,124.52,224.48Z"/></g><path class="cls-23" d="M112.63,169a.79.79,0,0,0,.73,0c.2-.11.2-.3,0-.42a.79.79,0,0,0-.73,0C112.42,168.72,112.42,168.91,112.63,169Z"/><path class="cls-23" d="M114.45,168a.79.79,0,0,0,.73,0c.2-.11.2-.3,0-.42a.79.79,0,0,0-.73,0C114.25,167.66,114.25,167.85,114.45,168Z"/><path class="cls-23" d="M109,171.14a.79.79,0,0,0,.73,0c.2-.11.2-.3,0-.42a.81.81,0,0,0-.74,0C108.77,170.84,108.77,171,109,171.14Z"/><path class="cls-23" d="M110.8,170.08a.79.79,0,0,0,.73,0c.2-.11.2-.3,0-.42a.79.79,0,0,0-.73,0C110.6,169.78,110.6,170,110.8,170.08Z"/><path class="cls-23" d="M105.33,173.26a.79.79,0,0,0,.73,0c.2-.11.2-.3,0-.42a.79.79,0,0,0-.73,0C105.12,173,105.13,173.15,105.33,173.26Z"/><path class="cls-23" d="M107.15,172.2a.79.79,0,0,0,.73,0c.21-.11.21-.3,0-.42a.79.79,0,0,0-.73,0C107,171.9,107,172.09,107.15,172.2Z"/><path class="cls-23" d="M101.68,175.38a.79.79,0,0,0,.73,0c.2-.11.2-.3,0-.42a.79.79,0,0,0-.73,0C101.48,175.08,101.48,175.27,101.68,175.38Z"/><path class="cls-23" d="M103.5,174.32a.81.81,0,0,0,.74,0c.2-.11.2-.3,0-.42a.79.79,0,0,0-.73,0C103.3,174,103.3,174.21,103.5,174.32Z"/><path class="cls-23" d="M98,177.51a.85.85,0,0,0,.73,0,.23.23,0,0,0,0-.43.79.79,0,0,0-.73,0A.23.23,0,0,0,98,177.51Z"/><path class="cls-23" d="M99.85,176.45a.87.87,0,0,0,.74,0c.2-.12.2-.31,0-.43a.79.79,0,0,0-.73,0A.23.23,0,0,0,99.85,176.45Z"/><path class="cls-23" d="M94.38,179.63a.85.85,0,0,0,.73,0c.21-.12.21-.31,0-.43a.79.79,0,0,0-.73,0A.23.23,0,0,0,94.38,179.63Z"/><path class="cls-23" d="M96.21,178.57a.85.85,0,0,0,.73,0,.23.23,0,0,0,0-.43.81.81,0,0,0-.74,0C96,178.26,96,178.45,96.21,178.57Z"/><path class="cls-23" d="M90.73,181.75a.87.87,0,0,0,.74,0c.2-.12.2-.31,0-.43a.79.79,0,0,0-.73,0A.23.23,0,0,0,90.73,181.75Z"/><path class="cls-23" d="M92.56,180.69a.85.85,0,0,0,.73,0,.23.23,0,0,0,0-.43.79.79,0,0,0-.73,0C92.35,180.38,92.35,180.57,92.56,180.69Z"/><path class="cls-23" d="M87.09,183.87a.85.85,0,0,0,.73,0,.23.23,0,0,0,0-.43.81.81,0,0,0-.74,0C86.88,183.56,86.88,183.75,87.09,183.87Z"/><path class="cls-23" d="M88.91,182.81a.85.85,0,0,0,.73,0,.23.23,0,0,0,0-.43.79.79,0,0,0-.73,0A.23.23,0,0,0,88.91,182.81Z"/><path class="cls-23" d="M83.44,186a.85.85,0,0,0,.73,0,.23.23,0,0,0,0-.43.81.81,0,0,0-.74,0C83.23,185.68,83.23,185.87,83.44,186Z"/><path class="cls-23" d="M85.26,184.93a.85.85,0,0,0,.73,0c.21-.12.2-.31,0-.43a.79.79,0,0,0-.73,0A.23.23,0,0,0,85.26,184.93Z"/><path class="cls-23" d="M79.79,188.11a.85.85,0,0,0,.73,0,.23.23,0,0,0,0-.43.79.79,0,0,0-.73,0C79.58,187.8,79.59,188,79.79,188.11Z"/><path class="cls-23" d="M81.61,187.05a.87.87,0,0,0,.74,0c.2-.12.2-.31,0-.43a.79.79,0,0,0-.73,0A.23.23,0,0,0,81.61,187.05Z"/><path class="cls-23" d="M78.33,188.19a.86.86,0,0,0,.28,0l.08-.05h0c.13-.07.17-.17.14-.26a.35.35,0,0,0-.14-.16.82.82,0,0,0-.73,0l-.07,0a.21.21,0,0,0-.08.16.13.13,0,0,0,0,.06.19.19,0,0,0,.07.11l.07.05h0l.08,0,.18,0Z"/><path class="cls-23" d="M112.62,168a.79.79,0,0,0,.73,0c.2-.11.2-.3,0-.42a.79.79,0,0,0-.73,0C112.42,167.66,112.42,167.85,112.62,168Z"/><path class="cls-23" d="M110.78,166.9a.81.81,0,0,0,.74,0c.2-.11.2-.3,0-.42a.79.79,0,0,0-.73,0C110.58,166.6,110.58,166.79,110.78,166.9Z"/><path class="cls-23" d="M109,166.9a.79.79,0,0,0,.73,0c.21-.11.21-.3,0-.42a.79.79,0,0,0-.73,0C108.75,166.6,108.75,166.79,109,166.9Z"/><path class="cls-23" d="M110.79,168a.79.79,0,0,0,.73,0c.2-.11.2-.3,0-.42a.79.79,0,0,0-.73,0C110.58,167.66,110.59,167.85,110.79,168Z"/><path class="cls-23" d="M110.78,165.84a.79.79,0,0,0,.73,0c.2-.11.2-.3,0-.42a.81.81,0,0,0-.74,0C110.57,165.54,110.57,165.73,110.78,165.84Z"/><path class="cls-23" d="M112.61,166.9a.81.81,0,0,0,.74,0c.2-.11.2-.3,0-.42a.79.79,0,0,0-.73,0C112.41,166.6,112.41,166.79,112.61,166.9Z"/><path class="cls-23" d="M109,170.08a.79.79,0,0,0,.73,0c.2-.11.2-.3,0-.42a.79.79,0,0,0-.73,0C108.77,169.78,108.77,170,109,170.08Z"/><path class="cls-23" d="M107.13,169a.81.81,0,0,0,.74,0c.2-.11.2-.3,0-.42a.79.79,0,0,0-.73,0C106.93,168.72,106.93,168.91,107.13,169Z"/><path class="cls-23" d="M105.3,169a.81.81,0,0,0,.74,0c.2-.11.2-.3,0-.42a.79.79,0,0,0-.73,0C105.1,168.72,105.1,168.91,105.3,169Z"/><path class="cls-23" d="M107.14,170.08a.79.79,0,0,0,.73,0c.2-.11.2-.3,0-.42a.79.79,0,0,0-.73,0C106.94,169.78,106.94,170,107.14,170.08Z"/><path class="cls-23" d="M107.13,168a.79.79,0,0,0,.73,0c.2-.11.2-.3,0-.42a.79.79,0,0,0-.73,0C106.92,167.66,106.93,167.85,107.13,168Z"/><path class="cls-23" d="M109,169a.81.81,0,0,0,.74,0c.2-.11.2-.3,0-.42a.79.79,0,0,0-.73,0C108.76,168.72,108.76,168.91,109,169Z"/><path class="cls-23" d="M110.73,169l.06,0h0l.07,0,.19.05h.1a.71.71,0,0,0,.29-.05l.07,0h0a.24.24,0,0,0,.14-.27.31.31,0,0,0-.15-.15.72.72,0,0,0-.26-.08.81.81,0,0,0-.47.08.15.15,0,0,0-.06.05.21.21,0,0,0-.09.16s0,0,0,.06A.26.26,0,0,0,110.73,169Zm.43-.17.12.07-.12-.07-.17.1Z"/><path class="cls-23" d="M108.89,167.91l.07.06.08,0a.41.41,0,0,0,.19,0h.1a.92.92,0,0,0,.28-.05l.08,0-.31-.18.31.17a.23.23,0,0,0,.14-.27.33.33,0,0,0-.14-.15.77.77,0,0,0-.27-.08.79.79,0,0,0-.46.08h0a.18.18,0,0,0-.07.05.21.21,0,0,0-.09.16.13.13,0,0,0,0,.06A.39.39,0,0,0,108.89,167.91Z"/><path class="cls-23" d="M105.32,172.2a.79.79,0,0,0,.73,0c.21-.11.21-.3,0-.42a.79.79,0,0,0-.73,0C105.12,171.9,105.12,172.09,105.32,172.2Z"/><path class="cls-23" d="M103.49,171.14a.79.79,0,0,0,.73,0c.2-.11.2-.3,0-.42a.81.81,0,0,0-.74,0C103.28,170.84,103.28,171,103.49,171.14Z"/><path class="cls-23" d="M101.66,171.14a.79.79,0,0,0,.73,0c.2-.11.2-.3,0-.42a.81.81,0,0,0-.74,0C101.45,170.84,101.45,171,101.66,171.14Z"/><path class="cls-23" d="M103.49,172.2a.79.79,0,0,0,.73,0c.21-.11.21-.3,0-.42a.79.79,0,0,0-.73,0C103.29,171.9,103.29,172.09,103.49,172.2Z"/><path class="cls-23" d="M103.48,170.08a.79.79,0,0,0,.73,0c.2-.11.2-.3,0-.42a.79.79,0,0,0-.73,0C103.28,169.78,103.28,170,103.48,170.08Z"/><path class="cls-23" d="M105.32,171.14a.79.79,0,0,0,.73,0c.2-.11.2-.3,0-.42a.81.81,0,0,0-.74,0C105.11,170.84,105.11,171,105.32,171.14Z"/><path class="cls-23" d="M107.15,171.14l.3-.17-.3.18a.85.85,0,0,0,.73,0l-.37-.22h0l.37.21a.35.35,0,0,0,.11-.09c.08-.11,0-.24-.11-.33a.85.85,0,0,0-.57-.07l-.17.07C106.94,170.84,106.94,171,107.15,171.14Z"/><path class="cls-23" d="M105.31,170.08a.79.79,0,0,0,.73,0h0l.12-.09c.07-.11,0-.24-.12-.33a.82.82,0,0,0-.56-.07l-.17.07.49.28-.49-.28C105.11,169.77,105.11,170,105.31,170.08Z"/><path class="cls-23" d="M101.67,174.32a.79.79,0,0,0,.73,0c.21-.11.21-.3,0-.42a.79.79,0,0,0-.73,0C101.47,174,101.47,174.21,101.67,174.32Z"/><path class="cls-23" d="M99.84,173.26a.79.79,0,0,0,.73,0c.2-.11.2-.3,0-.42a.81.81,0,0,0-.74,0C99.63,173,99.63,173.15,99.84,173.26Z"/><path class="cls-23" d="M98,173.26a.79.79,0,0,0,.73,0c.2-.11.2-.3,0-.42a.81.81,0,0,0-.74,0C97.8,173,97.8,173.15,98,173.26Z"/><path class="cls-23" d="M99.84,174.32a.79.79,0,0,0,.73,0c.21-.11.21-.3,0-.42a.79.79,0,0,0-.73,0C99.64,174,99.64,174.21,99.84,174.32Z"/><path class="cls-23" d="M99.83,172.2a.79.79,0,0,0,.73,0c.2-.11.2-.3,0-.42a.79.79,0,0,0-.73,0C99.63,171.9,99.63,172.09,99.83,172.2Z"/><path class="cls-23" d="M101.67,173.26a.79.79,0,0,0,.73,0c.2-.11.2-.3,0-.42a.79.79,0,0,0-.73,0C101.46,173,101.47,173.15,101.67,173.26Z"/><path class="cls-23" d="M103.43,173.22l.07,0h0l.08.05.18,0h.11a1.35,1.35,0,0,0,.28,0l.08-.05-.1-.06.1.06a.25.25,0,0,0,.14-.15.24.24,0,0,0-.14-.27.81.81,0,0,0-.47-.08.66.66,0,0,0-.26.08l-.07,0a.17.17,0,0,0-.08.16v.06A.38.38,0,0,0,103.43,173.22Z"/><path class="cls-23" d="M101.59,172.16l.07,0,.08,0,.19,0H102a.65.65,0,0,0,.29,0s0,0,.08,0h0a.27.27,0,0,0,.15-.15c0-.1,0-.2-.15-.27a.82.82,0,0,0-.73,0h0l-.07.05a.18.18,0,0,0-.08.16.13.13,0,0,0,0,.06A.34.34,0,0,0,101.59,172.16Z"/><path class="cls-23" d="M98,176.45a.87.87,0,0,0,.74,0c.2-.12.2-.31,0-.43a.79.79,0,0,0-.73,0A.23.23,0,0,0,98,176.45Z"/><path class="cls-23" d="M96.19,175.38a.79.79,0,0,0,.73,0c.2-.11.2-.3,0-.42a.79.79,0,0,0-.73,0C96,175.08,96,175.27,96.19,175.38Z"/><path class="cls-23" d="M94.36,175.38a.79.79,0,0,0,.73,0c.2-.11.2-.3,0-.42a.79.79,0,0,0-.73,0C94.16,175.08,94.16,175.27,94.36,175.38Z"/><path class="cls-23" d="M96.19,176.45a.87.87,0,0,0,.74,0c.2-.12.2-.31,0-.43a.79.79,0,0,0-.73,0A.23.23,0,0,0,96.19,176.45Z"/><path class="cls-23" d="M96.18,174.32a.79.79,0,0,0,.73,0c.21-.11.21-.3,0-.42a.79.79,0,0,0-.73,0C96,174,96,174.21,96.18,174.32Z"/><path class="cls-23" d="M98,175.38a.79.79,0,0,0,.73,0c.2-.11.2-.3,0-.42a.79.79,0,0,0-.73,0C97.82,175.08,97.82,175.27,98,175.38Z"/><path class="cls-23" d="M99.78,175.34l.07,0h0l.08,0,.19.05h.09a.68.68,0,0,0,.29-.06s0,0,.08,0h0c.13-.07.17-.17.14-.26a.31.31,0,0,0-.14-.16.82.82,0,0,0-.73,0l-.07,0a.19.19,0,0,0-.08.16.13.13,0,0,0,0,.06A.23.23,0,0,0,99.78,175.34Zm.43-.17.13.07-.13-.06-.13.07Z"/><path class="cls-23" d="M98,174.28l.06.05.09,0a.37.37,0,0,0,.18,0h.1a.64.64,0,0,0,.28,0l.09,0h0c.13-.07.18-.17.15-.26a.29.29,0,0,0-.15-.16.72.72,0,0,0-.26-.08.81.81,0,0,0-.47.08h0l-.07,0a.23.23,0,0,0-.08.16s0,0,0,.06A.26.26,0,0,0,98,174.28Z"/><path class="cls-23" d="M94.38,178.57a.85.85,0,0,0,.73,0,.23.23,0,0,0,0-.43.81.81,0,0,0-.74,0C94.17,178.26,94.17,178.45,94.38,178.57Z"/><path class="cls-23" d="M92.54,177.51a.85.85,0,0,0,.73,0,.23.23,0,0,0,0-.43.79.79,0,0,0-.73,0A.23.23,0,0,0,92.54,177.51Z"/><path class="cls-23" d="M90.71,177.51a.85.85,0,0,0,.73,0,.23.23,0,0,0,0-.43.79.79,0,0,0-.73,0A.23.23,0,0,0,90.71,177.51Z"/><path class="cls-23" d="M92.55,178.57a.85.85,0,0,0,.73,0,.23.23,0,0,0,0-.43.81.81,0,0,0-.74,0C92.34,178.26,92.34,178.45,92.55,178.57Z"/><path class="cls-23" d="M92.53,176.45a.87.87,0,0,0,.74,0c.2-.12.2-.31,0-.43a.79.79,0,0,0-.73,0A.23.23,0,0,0,92.53,176.45Z"/><path class="cls-23" d="M94.37,177.51a.85.85,0,0,0,.73,0,.23.23,0,0,0,0-.43.79.79,0,0,0-.73,0A.23.23,0,0,0,94.37,177.51Z"/><path class="cls-23" d="M96.2,177.51l.24-.14-.24.14a.81.81,0,0,0,.65,0l.08,0-.37-.22h0l.36.22c.08,0,.13-.1.14-.16a.23.23,0,0,0-.14-.27.79.79,0,0,0-.46-.08.71.71,0,0,0-.27.08l-.07,0C96,177.24,96,177.4,96.2,177.51Z"/><path class="cls-23" d="M94.37,176.44a.81.81,0,0,0,.65.05l.08-.05h0a.35.35,0,0,0,.14-.16.24.24,0,0,0-.15-.27.82.82,0,0,0-.73,0l.71.41-.71-.41s0,0-.06,0S94.19,176.34,94.37,176.44Z"/><path class="cls-23" d="M90.73,180.69a.85.85,0,0,0,.73,0,.23.23,0,0,0,0-.43.79.79,0,0,0-.73,0C90.52,180.38,90.52,180.57,90.73,180.69Z"/><path class="cls-23" d="M88.89,179.63a.85.85,0,0,0,.73,0c.21-.12.2-.31,0-.43a.79.79,0,0,0-.73,0A.23.23,0,0,0,88.89,179.63Z"/><path class="cls-23" d="M87.06,179.63a.85.85,0,0,0,.73,0c.21-.12.2-.31,0-.43a.79.79,0,0,0-.73,0A.23.23,0,0,0,87.06,179.63Z"/><path class="cls-23" d="M88.9,180.69a.85.85,0,0,0,.73,0,.23.23,0,0,0,0-.43.79.79,0,0,0-.73,0C88.69,180.38,88.69,180.57,88.9,180.69Z"/><path class="cls-23" d="M88.89,178.57a.85.85,0,0,0,.73,0,.23.23,0,0,0,0-.43.81.81,0,0,0-.74,0C88.68,178.26,88.68,178.45,88.89,178.57Z"/><path class="cls-23" d="M90.72,179.63a.85.85,0,0,0,.73,0c.21-.12.2-.31,0-.43a.79.79,0,0,0-.73,0A.23.23,0,0,0,90.72,179.63Z"/><path class="cls-23" d="M92.49,179.58l.06,0h0l.09,0a.53.53,0,0,0,.18.05h.1a.82.82,0,0,0,.28-.05l.09,0h0c.12-.07.17-.17.14-.26a.32.32,0,0,0-.15-.16.71.71,0,0,0-.27-.08.79.79,0,0,0-.46.08l-.07.05a.24.24,0,0,0-.08.16.13.13,0,0,0,0,.06A.21.21,0,0,0,92.49,179.58Z"/><path class="cls-23" d="M90.65,178.52l.06,0,.09.05.18,0h.1a.93.93,0,0,0,.29,0l.08-.05h0c.12-.07.17-.17.14-.26a.31.31,0,0,0-.14-.16.77.77,0,0,0-.27-.08.83.83,0,0,0-.47.08l0,0,0,0-.06,0a.26.26,0,0,0-.09.18.43.43,0,0,1,0,0A.38.38,0,0,0,90.65,178.52Z"/><path class="cls-23" d="M87.08,182.81a.85.85,0,0,0,.73,0,.23.23,0,0,0,0-.43.79.79,0,0,0-.73,0A.23.23,0,0,0,87.08,182.81Z"/><path class="cls-23" d="M85.24,181.75a.87.87,0,0,0,.74,0c.2-.12.2-.31,0-.43a.79.79,0,0,0-.73,0A.23.23,0,0,0,85.24,181.75Z"/><path class="cls-23" d="M83.41,181.75a.87.87,0,0,0,.74,0c.2-.12.2-.31,0-.43a.79.79,0,0,0-.73,0A.23.23,0,0,0,83.41,181.75Z"/><path class="cls-23" d="M85.25,182.81a.85.85,0,0,0,.73,0,.23.23,0,0,0,0-.43.79.79,0,0,0-.73,0A.23.23,0,0,0,85.25,182.81Z"/><path class="cls-23" d="M85.24,180.69a.85.85,0,0,0,.73,0,.23.23,0,0,0,0-.43.79.79,0,0,0-.73,0C85,180.38,85,180.57,85.24,180.69Z"/><path class="cls-23" d="M87.07,181.75a.87.87,0,0,0,.74,0c.2-.12.2-.31,0-.43a.79.79,0,0,0-.73,0A.23.23,0,0,0,87.07,181.75Z"/><path class="cls-23" d="M88.84,181.7l.06.05h0l.07,0,.19,0h.1a.93.93,0,0,0,.29-.05l.07,0h0c.12-.08.17-.18.14-.27a.32.32,0,0,0-.15-.16.72.72,0,0,0-.26-.08.81.81,0,0,0-.47.08s-.05,0-.06.05a.22.22,0,0,0-.09.16.13.13,0,0,0,0,.06A.21.21,0,0,0,88.84,181.7Zm.43-.17.27.16-.27-.15-.22.12Z"/><path class="cls-23" d="M87,180.64l.07.05.08,0a.59.59,0,0,0,.19.05h.09a.68.68,0,0,0,.29-.05l.08,0-.73-.43.73.43c.13-.08.17-.18.14-.27a.35.35,0,0,0-.14-.16.82.82,0,0,0-.73,0h0l-.06.05a.18.18,0,0,0-.08.16.13.13,0,0,0,0,.06S87,180.6,87,180.64Z"/><path class="cls-23" d="M83.43,184.93a.85.85,0,0,0,.73,0c.21-.12.2-.31,0-.43a.79.79,0,0,0-.73,0A.23.23,0,0,0,83.43,184.93Z"/><path class="cls-23" d="M81.6,183.87a.85.85,0,0,0,.73,0c.2-.12.2-.31,0-.43a.79.79,0,0,0-.73,0C81.39,183.56,81.39,183.75,81.6,183.87Z"/><path class="cls-23" d="M79.77,183.87a.85.85,0,0,0,.73,0c.2-.12.2-.31,0-.43a.79.79,0,0,0-.73,0C79.56,183.56,79.56,183.75,79.77,183.87Z"/><path class="cls-23" d="M81.6,184.93a.85.85,0,0,0,.73,0c.21-.12.2-.31,0-.43a.79.79,0,0,0-.73,0A.23.23,0,0,0,81.6,184.93Z"/><path class="cls-23" d="M81.59,182.81a.85.85,0,0,0,.73,0,.23.23,0,0,0,0-.43.79.79,0,0,0-.73,0A.23.23,0,0,0,81.59,182.81Z"/><path class="cls-23" d="M83.43,183.87a.85.85,0,0,0,.73,0c.2-.12.2-.31,0-.43a.79.79,0,0,0-.73,0C83.22,183.56,83.22,183.75,83.43,183.87Z"/><path class="cls-23" d="M85.26,183.87l.36-.22h0l-.37.22a.84.84,0,0,0,.66,0l.08,0-.36-.21.36.21a.35.35,0,0,0,.14-.16.24.24,0,0,0-.14-.27.83.83,0,0,0-.47-.08.77.77,0,0,0-.27.08l-.06.05C85.05,183.6,85.08,183.76,85.26,183.87Z"/><path class="cls-23" d="M83.42,182.81a.81.81,0,0,0,.65,0l.08,0-.25-.15.25.15a.3.3,0,0,0,.14-.16.23.23,0,0,0-.14-.27.81.81,0,0,0-.47-.08.79.79,0,0,0-.26.08h0a.18.18,0,0,0-.07.05C83.22,182.55,83.24,182.7,83.42,182.81Z"/><path class="cls-23" d="M79.78,187.05a.85.85,0,0,0,.73,0c.21-.12.21-.31,0-.43a.79.79,0,0,0-.73,0A.23.23,0,0,0,79.78,187.05Z"/><path class="cls-23" d="M78,186a.85.85,0,0,0,.73,0,.23.23,0,0,0,0-.43.81.81,0,0,0-.74,0C77.74,185.68,77.74,185.87,78,186Z"/><path class="cls-23" d="M76.12,186a.85.85,0,0,0,.73,0,.23.23,0,0,0,0-.43.81.81,0,0,0-.74,0C75.91,185.68,75.91,185.87,76.12,186Z"/><path class="cls-23" d="M78,187.05a.85.85,0,0,0,.73,0c.21-.12.21-.31,0-.43a.79.79,0,0,0-.73,0A.23.23,0,0,0,78,187.05Z"/><path class="cls-23" d="M77.94,184.93a.85.85,0,0,0,.73,0,.23.23,0,0,0,0-.43.79.79,0,0,0-.73,0A.23.23,0,0,0,77.94,184.93Z"/><path class="cls-23" d="M79.78,186a.85.85,0,0,0,.73,0,.23.23,0,0,0,0-.43.81.81,0,0,0-.74,0C79.57,185.68,79.57,185.87,79.78,186Z"/><path class="cls-23" d="M81.54,185.94l.07.05.17-.1-.17.1.08,0a.41.41,0,0,0,.19,0H82a.68.68,0,0,0,.29,0l.08,0L82,185.8l.32.19c.13-.08.17-.18.14-.27a.35.35,0,0,0-.14-.16.77.77,0,0,0-.27-.08.83.83,0,0,0-.47.08l-.06.05a.22.22,0,0,0-.09.16s0,0,0,.06A.28.28,0,0,0,81.54,185.94Z"/><path class="cls-23" d="M79.71,184.88a.08.08,0,0,0,.06,0l.08.05.19,0a.34.34,0,0,0,.1,0,.73.73,0,0,0,.29,0l.07-.05h0c.13-.08.18-.18.14-.27a.3.3,0,0,0-.14-.16.77.77,0,0,0-.27-.08.79.79,0,0,0-.46.08l.4.23-.4-.23a.1.1,0,0,0-.06.05.22.22,0,0,0-.09.17.09.09,0,0,0,0,.05A.17.17,0,0,0,79.71,184.88Z"/><path class="cls-23" d="M76.49,187.14a.64.64,0,0,0,.28-.06.19.19,0,0,0,.08,0l-.53-.31.53.31c.13-.08.18-.18.15-.27a.32.32,0,0,0-.15-.16.71.71,0,0,0-.27-.08.79.79,0,0,0-.46.08h0l-.07,0a.21.21,0,0,0-.08.17.43.43,0,0,1,0,0,.34.34,0,0,0,.07.11l.07.05s0,0,.08,0a.67.67,0,0,0,.19,0Z"/><path class="cls-23" d="M207.87,224.74a.87.87,0,0,0,.74,0c.2-.12.2-.31,0-.43a.85.85,0,0,0-.73,0A.23.23,0,0,0,207.87,224.74Z"/><path class="cls-23" d="M209.7,223.68a.85.85,0,0,0,.73,0,.23.23,0,0,0,0-.43.85.85,0,0,0-.73,0C209.49,223.37,209.49,223.56,209.7,223.68Z"/><path class="cls-23" d="M204.23,226.86a.85.85,0,0,0,.73,0c.2-.12.2-.31,0-.43a.85.85,0,0,0-.73,0C204,226.55,204,226.74,204.23,226.86Z"/><path class="cls-23" d="M206.05,225.8a.85.85,0,0,0,.73,0,.23.23,0,0,0,0-.43.85.85,0,0,0-.73,0C205.84,225.49,205.85,225.68,206.05,225.8Z"/><path class="cls-23" d="M200.58,229a.85.85,0,0,0,.73,0,.23.23,0,0,0,0-.43.87.87,0,0,0-.74,0C200.37,228.67,200.37,228.86,200.58,229Z"/><path class="cls-23" d="M202.4,227.92a.85.85,0,0,0,.73,0,.23.23,0,0,0,0-.43.85.85,0,0,0-.73,0A.23.23,0,0,0,202.4,227.92Z"/><path class="cls-23" d="M196.93,231.1a.85.85,0,0,0,.73,0,.23.23,0,0,0,0-.43.87.87,0,0,0-.74,0C196.72,230.79,196.72,231,196.93,231.1Z"/><path class="cls-23" d="M198.75,230a.85.85,0,0,0,.73,0c.21-.12.21-.31,0-.43a.85.85,0,0,0-.73,0A.23.23,0,0,0,198.75,230Z"/><path class="cls-23" d="M193.28,233.22a.82.82,0,0,0,.73,0,.23.23,0,0,0,0-.43.85.85,0,0,0-.73,0A.23.23,0,0,0,193.28,233.22Z"/><path class="cls-23" d="M195.1,232.16a.84.84,0,0,0,.74,0c.2-.12.2-.31,0-.43a.85.85,0,0,0-.73,0A.23.23,0,0,0,195.1,232.16Z"/><path class="cls-23" d="M189.63,235.34a.82.82,0,0,0,.73,0,.23.23,0,0,0,0-.43.85.85,0,0,0-.73,0A.23.23,0,0,0,189.63,235.34Z"/><path class="cls-23" d="M191.45,234.28a.84.84,0,0,0,.74,0c.2-.12.2-.31,0-.43a.85.85,0,0,0-.73,0A.23.23,0,0,0,191.45,234.28Z"/><path class="cls-23" d="M186,237.46a.82.82,0,0,0,.73,0c.21-.12.21-.31,0-.43a.85.85,0,0,0-.73,0A.23.23,0,0,0,186,237.46Z"/><path class="cls-23" d="M187.81,236.4a.79.79,0,0,0,.73,0,.23.23,0,0,0,0-.43.87.87,0,0,0-.74,0C187.6,236.09,187.6,236.28,187.81,236.4Z"/><path class="cls-23" d="M182.33,239.58a.81.81,0,0,0,.74,0c.2-.12.2-.31,0-.43a.85.85,0,0,0-.73,0A.23.23,0,0,0,182.33,239.58Z"/><path class="cls-23" d="M184.16,238.52a.79.79,0,0,0,.73,0,.23.23,0,0,0,0-.43.85.85,0,0,0-.73,0C184,238.21,184,238.4,184.16,238.52Z"/><path class="cls-23" d="M178.69,241.7a.79.79,0,0,0,.73,0,.23.23,0,0,0,0-.43.87.87,0,0,0-.74,0C178.48,241.39,178.48,241.58,178.69,241.7Z"/><path class="cls-23" d="M180.51,240.64a.79.79,0,0,0,.73,0,.23.23,0,0,0,0-.43.85.85,0,0,0-.73,0A.23.23,0,0,0,180.51,240.64Z"/><path class="cls-23" d="M175,243.82a.79.79,0,0,0,.73,0,.23.23,0,0,0,0-.43.87.87,0,0,0-.74,0C174.83,243.51,174.83,243.7,175,243.82Z"/><path class="cls-23" d="M176.86,242.76a.79.79,0,0,0,.73,0c.21-.12.2-.31,0-.43a.85.85,0,0,0-.73,0A.23.23,0,0,0,176.86,242.76Z"/><path class="cls-23" d="M173.57,243.9a.88.88,0,0,0,.29,0,.3.3,0,0,1,.08,0h0c.12-.08.17-.18.14-.27a.35.35,0,0,0-.14-.16.77.77,0,0,0-.27-.08.83.83,0,0,0-.47.08l-.06.05a.22.22,0,0,0-.09.17.43.43,0,0,0,0,0,.28.28,0,0,0,.08.11l.07,0h0l.08,0,.18,0Z"/><path class="cls-23" d="M207.87,223.68a.85.85,0,0,0,.73,0,.23.23,0,0,0,0-.43.87.87,0,0,0-.74,0C207.66,223.37,207.66,223.56,207.87,223.68Z"/><path class="cls-23" d="M206,222.62a.85.85,0,0,0,.73,0c.21-.12.2-.31,0-.43a.85.85,0,0,0-.73,0A.23.23,0,0,0,206,222.62Z"/><path class="cls-23" d="M204.2,222.62a.85.85,0,0,0,.73,0,.23.23,0,0,0,0-.43.85.85,0,0,0-.73,0A.23.23,0,0,0,204.2,222.62Z"/><path class="cls-23" d="M206,223.68a.85.85,0,0,0,.73,0,.23.23,0,0,0,0-.43.87.87,0,0,0-.74,0C205.83,223.37,205.83,223.56,206,223.68Z"/><path class="cls-23" d="M206,221.56a.85.85,0,0,0,.73,0,.23.23,0,0,0,0-.43.84.84,0,0,0-.74,0C205.82,221.25,205.82,221.44,206,221.56Z"/><path class="cls-23" d="M207.86,222.62a.85.85,0,0,0,.73,0,.23.23,0,0,0,0-.43.85.85,0,0,0-.73,0A.23.23,0,0,0,207.86,222.62Z"/><path class="cls-23" d="M204.22,225.8a.85.85,0,0,0,.73,0,.23.23,0,0,0,0-.43.85.85,0,0,0-.73,0C204,225.49,204,225.68,204.22,225.8Z"/><path class="cls-23" d="M202.38,224.74a.87.87,0,0,0,.74,0c.2-.12.2-.31,0-.43a.85.85,0,0,0-.73,0A.23.23,0,0,0,202.38,224.74Z"/><path class="cls-23" d="M200.55,224.74a.85.85,0,0,0,.73,0c.21-.12.21-.31,0-.43a.85.85,0,0,0-.73,0A.23.23,0,0,0,200.55,224.74Z"/><path class="cls-23" d="M202.39,225.8a.85.85,0,0,0,.73,0,.23.23,0,0,0,0-.43.85.85,0,0,0-.73,0C202.18,225.49,202.19,225.68,202.39,225.8Z"/><path class="cls-23" d="M202.38,223.68a.85.85,0,0,0,.73,0,.23.23,0,0,0,0-.43.87.87,0,0,0-.74,0C202.17,223.37,202.17,223.56,202.38,223.68Z"/><path class="cls-23" d="M204.21,224.74a.87.87,0,0,0,.74,0c.2-.12.2-.31,0-.43a.85.85,0,0,0-.73,0A.23.23,0,0,0,204.21,224.74Z"/><path class="cls-23" d="M206,224.69l.06.05h0a.18.18,0,0,0,.07.05l.19,0h.1a.82.82,0,0,0,.28-.05l.08-.05h0c.12-.08.17-.18.14-.27a.32.32,0,0,0-.15-.16.71.71,0,0,0-.27-.08.79.79,0,0,0-.46.08l-.07.05a.25.25,0,0,0-.08.17.11.11,0,0,0,0,.05A.21.21,0,0,0,206,224.69Zm.43-.17.12.07-.12-.06-.17.09Z"/><path class="cls-23" d="M204.14,223.63l.07.05s0,0,.07,0a.41.41,0,0,0,.19,0h.11a.69.69,0,0,0,.28,0l.08,0-.31-.18.31.18c.12-.08.17-.18.14-.27a.35.35,0,0,0-.14-.16.82.82,0,0,0-.73,0h0l-.07.05a.21.21,0,0,0-.09.16s0,0,0,.06A.38.38,0,0,0,204.14,223.63Z"/><path class="cls-23" d="M200.57,227.92a.85.85,0,0,0,.73,0,.23.23,0,0,0,0-.43.85.85,0,0,0-.73,0A.23.23,0,0,0,200.57,227.92Z"/><path class="cls-23" d="M198.73,226.86a.87.87,0,0,0,.74,0c.2-.12.2-.31,0-.43a.85.85,0,0,0-.73,0A.23.23,0,0,0,198.73,226.86Z"/><path class="cls-23" d="M196.9,226.86a.87.87,0,0,0,.74,0c.2-.12.2-.31,0-.43a.85.85,0,0,0-.73,0A.23.23,0,0,0,196.9,226.86Z"/><path class="cls-23" d="M198.74,227.92a.85.85,0,0,0,.73,0,.23.23,0,0,0,0-.43.85.85,0,0,0-.73,0A.23.23,0,0,0,198.74,227.92Z"/><path class="cls-23" d="M198.73,225.8a.85.85,0,0,0,.73,0,.23.23,0,0,0,0-.43.85.85,0,0,0-.73,0C198.52,225.49,198.53,225.68,198.73,225.8Z"/><path class="cls-23" d="M200.56,226.86a.87.87,0,0,0,.74,0c.2-.12.2-.31,0-.43a.85.85,0,0,0-.73,0A.23.23,0,0,0,200.56,226.86Z"/><path class="cls-23" d="M202.39,226.86l.31-.18-.3.18a.85.85,0,0,0,.73,0l-.37-.22h0l.37.22a.55.55,0,0,0,.11-.1c.07-.11,0-.24-.12-.33a.76.76,0,0,0-.56-.06.49.49,0,0,0-.17.06A.23.23,0,0,0,202.39,226.86Z"/><path class="cls-23" d="M200.56,225.8a.79.79,0,0,0,.73,0h0a.36.36,0,0,0,.11-.1c.08-.11,0-.24-.11-.33a.82.82,0,0,0-.56-.06.43.43,0,0,0-.17.06l.49.29-.49-.28C200.36,225.49,200.36,225.68,200.56,225.8Z"/><path class="cls-23" d="M196.92,230a.85.85,0,0,0,.73,0c.21-.12.2-.31,0-.43a.85.85,0,0,0-.73,0A.23.23,0,0,0,196.92,230Z"/><path class="cls-23" d="M195.09,229a.85.85,0,0,0,.73,0c.2-.12.2-.31,0-.43a.85.85,0,0,0-.73,0C194.88,228.67,194.88,228.86,195.09,229Z"/><path class="cls-23" d="M193.26,229a.85.85,0,0,0,.73,0c.2-.12.2-.31,0-.43a.85.85,0,0,0-.73,0C193.05,228.67,193.05,228.86,193.26,229Z"/><path class="cls-23" d="M195.09,230a.85.85,0,0,0,.73,0,.23.23,0,0,0,0-.43.85.85,0,0,0-.73,0A.23.23,0,0,0,195.09,230Z"/><path class="cls-23" d="M195.08,227.92a.85.85,0,0,0,.73,0,.23.23,0,0,0,0-.43.85.85,0,0,0-.73,0A.23.23,0,0,0,195.08,227.92Z"/><path class="cls-23" d="M196.92,229a.85.85,0,0,0,.73,0,.23.23,0,0,0,0-.43.87.87,0,0,0-.74,0C196.71,228.67,196.71,228.86,196.92,229Z"/><path class="cls-23" d="M198.68,228.93l.07,0h0l.07,0,.19,0h.1a1.35,1.35,0,0,0,.29,0l.07,0-.1-.06.11.06a.35.35,0,0,0,.14-.16c0-.09,0-.19-.14-.27a.83.83,0,0,0-.47-.08.77.77,0,0,0-.27.08l-.06,0a.22.22,0,0,0-.09.17.43.43,0,0,1,0,0A.28.28,0,0,0,198.68,228.93Z"/><path class="cls-23" d="M196.84,227.87l.07,0,.08.05.19,0h.09a.88.88,0,0,0,.29,0l.08-.05h0a.3.3,0,0,0,.14-.16c0-.09,0-.19-.14-.27a.79.79,0,0,0-.46-.08.71.71,0,0,0-.27.08h0l-.07,0a.21.21,0,0,0-.08.17.11.11,0,0,0,0,0A.26.26,0,0,0,196.84,227.87Z"/><path class="cls-23" d="M193.27,232.16a.82.82,0,0,0,.73,0c.21-.12.21-.31,0-.43a.85.85,0,0,0-.73,0A.23.23,0,0,0,193.27,232.16Z"/><path class="cls-23" d="M191.44,231.1a.85.85,0,0,0,.73,0,.23.23,0,0,0,0-.43.87.87,0,0,0-.74,0C191.23,230.79,191.23,231,191.44,231.1Z"/><path class="cls-23" d="M189.61,231.1a.85.85,0,0,0,.73,0,.23.23,0,0,0,0-.43.87.87,0,0,0-.74,0C189.4,230.79,189.4,231,189.61,231.1Z"/><path class="cls-23" d="M191.44,232.16a.82.82,0,0,0,.73,0c.21-.12.21-.31,0-.43a.85.85,0,0,0-.73,0A.23.23,0,0,0,191.44,232.16Z"/><path class="cls-23" d="M191.43,230a.85.85,0,0,0,.73,0,.23.23,0,0,0,0-.43.85.85,0,0,0-.73,0A.23.23,0,0,0,191.43,230Z"/><path class="cls-23" d="M193.27,231.1a.85.85,0,0,0,.73,0,.23.23,0,0,0,0-.43.87.87,0,0,0-.74,0C193.06,230.79,193.06,231,193.27,231.1Z"/><path class="cls-23" d="M195,231.05l.07,0h0l.08,0,.19,0h.09a.88.88,0,0,0,.29-.05l.08,0h0c.13-.08.17-.18.14-.27a.35.35,0,0,0-.14-.16.77.77,0,0,0-.27-.08.83.83,0,0,0-.47.08l-.06.05a.22.22,0,0,0-.09.17.07.07,0,0,1,0,.05A.28.28,0,0,0,195,231.05Zm.43-.16.13.07-.13-.07-.13.07Z"/><path class="cls-23" d="M193.2,230l.06,0,.08,0a.41.41,0,0,0,.18.05h.11a.64.64,0,0,0,.28-.06.24.24,0,0,0,.09,0h0c.13-.08.18-.18.14-.27a.3.3,0,0,0-.14-.16.77.77,0,0,0-.27-.08.79.79,0,0,0-.46.08h0l-.07,0a.26.26,0,0,0-.09.17l0,.06A.31.31,0,0,0,193.2,230Z"/><path class="cls-23" d="M189.62,234.28a.84.84,0,0,0,.74,0c.2-.12.2-.31,0-.43a.85.85,0,0,0-.73,0A.23.23,0,0,0,189.62,234.28Z"/><path class="cls-23" d="M187.79,233.22a.82.82,0,0,0,.73,0,.23.23,0,0,0,0-.43.85.85,0,0,0-.73,0A.23.23,0,0,0,187.79,233.22Z"/><path class="cls-23" d="M186,233.22a.82.82,0,0,0,.73,0,.23.23,0,0,0,0-.43.85.85,0,0,0-.73,0A.23.23,0,0,0,186,233.22Z"/><path class="cls-23" d="M187.79,234.28a.84.84,0,0,0,.74,0c.2-.12.2-.31,0-.43a.85.85,0,0,0-.73,0A.23.23,0,0,0,187.79,234.28Z"/><path class="cls-23" d="M187.78,232.16a.82.82,0,0,0,.73,0c.21-.12.21-.31,0-.43a.85.85,0,0,0-.73,0A.23.23,0,0,0,187.78,232.16Z"/><path class="cls-23" d="M189.62,233.22a.82.82,0,0,0,.73,0,.23.23,0,0,0,0-.43.85.85,0,0,0-.73,0A.23.23,0,0,0,189.62,233.22Z"/><path class="cls-23" d="M191.45,233.22l.24-.14-.24.14a.81.81,0,0,0,.65,0s.05,0,.08,0l-.37-.21h0l.37.21a.3.3,0,0,0,.14-.16c0-.09,0-.19-.14-.27a.81.81,0,0,0-.47-.08.72.72,0,0,0-.26.08l-.07.05C191.25,233,191.27,233.12,191.45,233.22Z"/><path class="cls-23" d="M189.62,232.16a.81.81,0,0,0,.65,0l.07,0h0a.32.32,0,0,0,.15-.16c0-.09,0-.19-.15-.27a.82.82,0,0,0-.73,0l.71.41-.71-.4a.09.09,0,0,0-.06,0C189.41,231.9,189.44,232.05,189.62,232.16Z"/><path class="cls-23" d="M186,236.4a.79.79,0,0,0,.73,0,.23.23,0,0,0,0-.43.87.87,0,0,0-.74,0C185.77,236.09,185.77,236.28,186,236.4Z"/><path class="cls-23" d="M184.14,235.34a.79.79,0,0,0,.73,0,.23.23,0,0,0,0-.43.85.85,0,0,0-.73,0A.23.23,0,0,0,184.14,235.34Z"/><path class="cls-23" d="M182.31,235.34a.82.82,0,0,0,.73,0,.23.23,0,0,0,0-.43.85.85,0,0,0-.73,0A.23.23,0,0,0,182.31,235.34Z"/><path class="cls-23" d="M184.15,236.4a.82.82,0,0,0,.73,0,.23.23,0,0,0,0-.43.87.87,0,0,0-.74,0C183.94,236.09,183.94,236.28,184.15,236.4Z"/><path class="cls-23" d="M184.13,234.28a.81.81,0,0,0,.74,0c.2-.12.2-.31,0-.43a.85.85,0,0,0-.73,0A.23.23,0,0,0,184.13,234.28Z"/><path class="cls-23" d="M186,235.34a.79.79,0,0,0,.73,0,.23.23,0,0,0,0-.43.85.85,0,0,0-.73,0A.23.23,0,0,0,186,235.34Z"/><path class="cls-23" d="M187.73,235.29l.07.05h0s.06,0,.08,0a.38.38,0,0,0,.19,0h.1a.66.66,0,0,0,.28,0,.32.32,0,0,0,.09,0h0c.13-.08.18-.18.14-.27a.3.3,0,0,0-.14-.16.82.82,0,0,0-.73,0l-.07.05a.25.25,0,0,0-.08.17.11.11,0,0,0,0,.05A.26.26,0,0,0,187.73,235.29Z"/><path class="cls-23" d="M185.9,234.23s0,0,.06,0a.26.26,0,0,0,.09,0l.18,0h.1a.82.82,0,0,0,.28-.05l.09,0h0c.12-.07.17-.17.14-.26a.32.32,0,0,0-.15-.16.72.72,0,0,0-.26-.08.81.81,0,0,0-.47.08l0,0,0,0-.07.05a.25.25,0,0,0-.08.17s0,0,0,.05A.21.21,0,0,0,185.9,234.23Z"/><path class="cls-23" d="M182.33,238.52a.79.79,0,0,0,.73,0,.23.23,0,0,0,0-.43.85.85,0,0,0-.73,0C182.12,238.21,182.12,238.4,182.33,238.52Z"/><path class="cls-23" d="M180.49,237.46a.79.79,0,0,0,.73,0c.21-.12.2-.31,0-.43a.85.85,0,0,0-.73,0A.23.23,0,0,0,180.49,237.46Z"/><path class="cls-23" d="M178.66,237.46a.79.79,0,0,0,.73,0c.21-.12.2-.31,0-.43a.85.85,0,0,0-.73,0A.23.23,0,0,0,178.66,237.46Z"/><path class="cls-23" d="M180.5,238.52a.79.79,0,0,0,.73,0,.23.23,0,0,0,0-.43.85.85,0,0,0-.73,0C180.29,238.21,180.29,238.4,180.5,238.52Z"/><path class="cls-23" d="M180.49,236.4a.79.79,0,0,0,.73,0,.23.23,0,0,0,0-.43.87.87,0,0,0-.74,0C180.28,236.09,180.28,236.28,180.49,236.4Z"/><path class="cls-23" d="M182.32,237.46a.79.79,0,0,0,.73,0c.21-.12.2-.31,0-.43a.85.85,0,0,0-.73,0A.23.23,0,0,0,182.32,237.46Z"/><path class="cls-23" d="M184.09,237.41s0,0,.06.05h0l.07,0,.19,0h.1a.93.93,0,0,0,.29-.05l.07,0h0c.13-.08.18-.18.15-.27a.32.32,0,0,0-.15-.16.71.71,0,0,0-.27-.08.79.79,0,0,0-.46.08l-.07.05a.25.25,0,0,0-.08.17.09.09,0,0,0,0,.05A.21.21,0,0,0,184.09,237.41Zm.43-.16.27.15-.28-.15-.21.12Z"/><path class="cls-23" d="M182.25,236.35l.07.05.08,0,.19,0h.09a.88.88,0,0,0,.29-.05l.08,0-.74-.43.74.43c.12-.08.17-.18.14-.27a.35.35,0,0,0-.14-.16.77.77,0,0,0-.27-.08.83.83,0,0,0-.47.08h0l-.06.05a.21.21,0,0,0-.08.17v.06A.24.24,0,0,0,182.25,236.35Z"/><path class="cls-23" d="M178.68,240.64a.79.79,0,0,0,.73,0,.23.23,0,0,0,0-.43.85.85,0,0,0-.73,0A.23.23,0,0,0,178.68,240.64Z"/><path class="cls-23" d="M176.84,239.58a.81.81,0,0,0,.74,0c.2-.12.2-.31,0-.43a.85.85,0,0,0-.73,0A.23.23,0,0,0,176.84,239.58Z"/><path class="cls-23" d="M175,239.58a.81.81,0,0,0,.74,0c.2-.12.2-.31,0-.43a.85.85,0,0,0-.73,0A.23.23,0,0,0,175,239.58Z"/><path class="cls-23" d="M176.85,240.64a.79.79,0,0,0,.73,0,.23.23,0,0,0,0-.43.85.85,0,0,0-.73,0A.23.23,0,0,0,176.85,240.64Z"/><path class="cls-23" d="M176.84,238.52a.79.79,0,0,0,.73,0,.23.23,0,0,0,0-.43.85.85,0,0,0-.73,0C176.63,238.21,176.63,238.4,176.84,238.52Z"/><path class="cls-23" d="M178.67,239.58a.81.81,0,0,0,.74,0c.2-.12.2-.31,0-.43a.85.85,0,0,0-.73,0A.23.23,0,0,0,178.67,239.58Z"/><path class="cls-23" d="M180.5,239.58l.37-.21h0l-.37.21a.86.86,0,0,0,.65,0l.09,0-.36-.21.36.21a.35.35,0,0,0,.14-.16c0-.09,0-.19-.15-.27a.82.82,0,0,0-.73,0s-.05,0-.06,0S180.33,239.48,180.5,239.58Z"/><path class="cls-23" d="M178.67,238.52a.81.81,0,0,0,.65,0s.06,0,.08,0l-.25-.15.25.15a.35.35,0,0,0,.14-.16c0-.09,0-.19-.14-.27a.83.83,0,0,0-.47-.08.79.79,0,0,0-.26.08h0l-.07,0C178.47,238.26,178.49,238.42,178.67,238.52Z"/><path class="cls-23" d="M175,242.76a.79.79,0,0,0,.73,0c.21-.12.2-.31,0-.43a.85.85,0,0,0-.73,0A.23.23,0,0,0,175,242.76Z"/><path class="cls-23" d="M173.2,241.7a.79.79,0,0,0,.73,0c.2-.12.2-.31,0-.43a.85.85,0,0,0-.73,0C173,241.39,173,241.58,173.2,241.7Z"/><path class="cls-23" d="M171.37,241.7a.79.79,0,0,0,.73,0c.2-.12.2-.31,0-.43a.85.85,0,0,0-.73,0C171.16,241.39,171.16,241.58,171.37,241.7Z"/><path class="cls-23" d="M173.2,242.76a.79.79,0,0,0,.73,0,.23.23,0,0,0,0-.43.85.85,0,0,0-.73,0A.23.23,0,0,0,173.2,242.76Z"/><path class="cls-23" d="M173.19,240.64a.79.79,0,0,0,.73,0,.23.23,0,0,0,0-.43.85.85,0,0,0-.73,0C173,240.33,173,240.52,173.19,240.64Z"/><path class="cls-23" d="M175,241.7a.79.79,0,0,0,.73,0,.23.23,0,0,0,0-.43.87.87,0,0,0-.74,0C174.82,241.39,174.82,241.58,175,241.7Z"/><path class="cls-23" d="M176.79,241.65l.07,0,.17-.1-.17.1a.11.11,0,0,0,.08,0,.41.41,0,0,0,.18.05h.1a.72.72,0,0,0,.29-.06.13.13,0,0,0,.08,0l-.32-.18.32.18a.24.24,0,0,0,.14-.27.35.35,0,0,0-.14-.16.77.77,0,0,0-.27-.08.81.81,0,0,0-.47.08l-.06,0a.22.22,0,0,0-.09.17s0,0,0,0A.28.28,0,0,0,176.79,241.65Z"/><path class="cls-23" d="M175,240.59l.07,0,.08,0,.19,0h.09a.68.68,0,0,0,.29,0l.08,0h0c.13-.08.17-.18.14-.27a.35.35,0,0,0-.14-.16.82.82,0,0,0-.73,0l.4.24-.41-.23s0,0-.06,0a.21.21,0,0,0-.08.17.09.09,0,0,0,0,0A.19.19,0,0,0,175,240.59Z"/><path class="cls-23" d="M171.74,242.85a.87.87,0,0,0,.28,0l.08,0-.53-.31.53.31c.13-.07.18-.18.14-.27a.3.3,0,0,0-.14-.16.82.82,0,0,0-.73,0h0a.18.18,0,0,0-.07,0,.18.18,0,0,0-.08.16s0,0,0,0a.26.26,0,0,0,.07.11l.07,0,.08,0,.19,0Z"/><path class="cls-27" d="M195.63,201.81c-5.4-.66-10.83,1.15-15.61,3.73-4.16,2.26-8.87,5-13.58,5.51a12.46,12.46,0,0,0-1.77-11.59,15.56,15.56,0,0,0-10.32-5.92,21.88,21.88,0,0,0-12.19,2,22.44,22.44,0,0,0-8.67-27.25l-7.16-1.07-7.17,1.07a22.45,22.45,0,0,0-8.66,27.25,21.91,21.91,0,0,0-12.19-2A15.52,15.52,0,0,0,88,199.46a12.47,12.47,0,0,0-1.78,11.59c-4.7-.53-9.41-3.25-13.57-5.51C67.85,203,62.42,201.15,57,201.81S46.34,206,44.89,211.27c0,0,10.37,18.88,34,34.46a86,86,0,0,0,94.89,0c23.62-15.58,34-34.46,34-34.46C206.31,206,201,202.46,195.63,201.81Z"/><path class="cls-6" d="M117.54,161.06a2.76,2.76,0,0,0-1.84.49c-3,1.91-5.19,7-6.12,10.23a18,18,0,0,0,.55,11.74,6.1,6.1,0,0,1,4.31-6.35,52.73,52.73,0,0,0-1.51,8.25,14.14,14.14,0,0,0,.8,7.28c1.16,2.46,3.44,4.15,5.2,6.22a17.14,17.14,0,0,1,4,9.88c4.38,0,8.33-2.8,10.91-6.33s4-7.78,5.34-11.94a4.81,4.81,0,0,1,3,3.38,9.56,9.56,0,0,1,0,4.81,27.46,27.46,0,0,0-2.74-38l-15.4.94a16.63,16.63,0,0,1-4.88-.27A13.35,13.35,0,0,0,117.54,161.06Z"/><path class="cls-28" d="M115.35,164a6.4,6.4,0,0,0,.67,8.31,3.44,3.44,0,0,1,1.82-3c-.93,5-1.61,10.87.07,15.63,1,2.94,3,5.44,4.63,8.09s3,5.64,2.77,8.74c3.9-1.56,6.19-5.47,7.56-9.43s1.56-8.23,1.68-12.43a8.94,8.94,0,0,1,2,5.79A17,17,0,0,0,143,172.31a16.48,16.48,0,0,0-6.86-12.9c-2.25-1.6-4.95-1.94-7.7-2.2a13.34,13.34,0,0,0-3.34,0,8.49,8.49,0,0,0-3.06,1.15A22.19,22.19,0,0,0,115.35,164Z"/><path class="cls-29" d="M133.82,202.47c2.58-3.54,4-7.78,5.34-11.94a4.81,4.81,0,0,1,3,3.38,9.56,9.56,0,0,1,0,4.81,27.46,27.46,0,0,0-2.74-38l-7.8.47-5,7.41s7.33,16.83-3.63,40.22C127.29,208.83,131.24,206,133.82,202.47Z"/><path class="cls-30" d="M110.5,73.09c3.45,1.76,8.91,7.93,4.58,29.65a4,4,0,0,1-1.37,2.26,36.48,36.48,0,0,0-12.26,24.77c-.07.94-1.58,1.24-2.17.43-5-6.94-15.91-27.8,7.68-56.48A3,3,0,0,1,110.5,73.09Z"/><ellipse class="cls-31" cx="127.91" cy="161.65" rx="15.36" ry="6.96"/><ellipse class="cls-32" cx="127.91" cy="156.8" rx="17.24" ry="7.81"/><path class="cls-33" d="M147.76,150.39a6.76,6.76,0,0,1-.34,1.14l0,.1h0a11.79,11.79,0,0,1-5.3,5.51c-7.79,4.49-20.41,4.49-28.2,0a15.19,15.19,0,0,1-3.37-2.59,9.31,9.31,0,0,1-1.93-2.92,7,7,0,0,1-.4-1.33,238.49,238.49,0,0,1-7.08-31.13,231.06,231.06,0,0,1-2.76-43.26c.58-18.13,3.23-29.08,3.23-29.08L128,48.16h0l26.41-1.33S165.29,91.81,147.76,150.39Z"/><path class="cls-34" d="M105.11,61.5a1.94,1.94,0,1,1-1.87-2A1.94,1.94,0,0,1,105.11,61.5Z"/><path class="cls-34" d="M114.2,65.11a1.94,1.94,0,1,1-1.87-2A1.94,1.94,0,0,1,114.2,65.11Z"/><path class="cls-34" d="M124.31,68.14a1.94,1.94,0,1,1-1.87-2A1.94,1.94,0,0,1,124.31,68.14Z"/><path class="cls-34" d="M135.89,68.56a1.94,1.94,0,1,1-1.87-2A1.94,1.94,0,0,1,135.89,68.56Z"/><path class="cls-34" d="M147.48,66.33a1.95,1.95,0,1,1-1.87-2A2,2,0,0,1,147.48,66.33Z"/><path class="cls-34" d="M155.31,60.44a1.94,1.94,0,1,1-1.87-2A1.94,1.94,0,0,1,155.31,60.44Z"/><path class="cls-34" d="M110.09,133.35a1.94,1.94,0,1,1-2.11-1.76A1.95,1.95,0,0,1,110.09,133.35Z"/><path class="cls-34" d="M119.56,136.37a1.94,1.94,0,1,1-2.11-1.76A1.94,1.94,0,0,1,119.56,136.37Z"/><path class="cls-34" d="M130,138.1a1.94,1.94,0,1,1-2.11-1.76A1.94,1.94,0,0,1,130,138.1Z"/><path class="cls-34" d="M141.51,137.06a1.94,1.94,0,1,1-2.11-1.76A1.95,1.95,0,0,1,141.51,137.06Z"/><path class="cls-34" d="M152.72,132.21a1.94,1.94,0,1,1-2.11-1.75A1.94,1.94,0,0,1,152.72,132.21Z"/><ellipse class="cls-31" cx="127.98" cy="46.83" rx="26.41" ry="15.25"/><ellipse class="cls-30" cx="127.98" cy="44.27" rx="26.41" ry="15.25"/><path class="cls-30" d="M124.94,1.49C118,10.44,101.57,32.8,101.57,44h52.82C154.39,32.8,138,10.44,131,1.49A3.84,3.84,0,0,0,124.94,1.49Z"/><path class="cls-34" d="M146.65,139.29c-10.31,6-27,6-37.34,0a18.75,18.75,0,0,1-5.12-4.16q1.69,7.41,4,15.17a7,7,0,0,0,.4,1.33,9.31,9.31,0,0,0,1.93,2.92,15.19,15.19,0,0,0,3.37,2.59c7.79,4.49,20.41,4.49,28.2,0a11.79,11.79,0,0,0,5.3-5.51h0l0-.1a6.76,6.76,0,0,0,.34-1.14c1.56-5.21,2.89-10.3,4-15.28A18.93,18.93,0,0,1,146.65,139.29Z"/><path class="cls-35" d="M150.49,140.49a50.75,50.75,0,0,1,7.47,24,1.17,1.17,0,0,0,2.17.53c4.68-7.91,14.43-30.58-3.28-62,3-33.8-2.45-56.23-2.45-56.23h0a9.2,9.2,0,0,0-.1-1.28,9.19,9.19,0,0,0,.09-1.57h0C154.39,32.8,138,10.44,131,1.49a3.84,3.84,0,0,0-4.4-1.24c1.5,4.64,23.19,74.28-.08,168.33.45,0,.91,0,1.37,0,8.49,0,15.36-3.12,15.36-7a3.36,3.36,0,0,0-.2-1.13,4.94,4.94,0,0,0,2.08-3.72,3.83,3.83,0,0,0-.37-1.61,9.74,9.74,0,0,0,2.6-3.56h0l0-.1a6.76,6.76,0,0,0,.34-1.14c.36-1.18.69-2.35,1-3.51.08-.28.16-.55.23-.82.31-1.09.6-2.18.89-3.26a1.21,1.21,0,0,1,0-.18Z"/><path class="cls-36" d="M160.3,109.46c17.88,10.33,17.88,27.07,0,37.4s-46.89,10.32-64.77,0c-16.17-9.34-17.72-23.92-4.65-34.27"/><path class="cls-34" d="M121.25,114.89c-3.93,10.61-12.83,12.4-20.15,4.28a231.06,231.06,0,0,1-2.76-43.26c4.67-4.54,11.25-3.72,16.79,3C122.56,87.85,125.3,104,121.25,114.89Z"/><path class="cls-37" d="M117.66,112.35c-3.32,9-10.83,10.47-17,3.61a194,194,0,0,1-2.34-36.5c4-3.83,9.5-3.14,14.17,2.5C118.76,89.53,121.08,103.14,117.66,112.35Z"/><path class="cls-38" d="M117.66,112.35c-3.32,9-10.83,10.47-17,3.61a194,194,0,0,1-2.34-36.5c4-3.83,9.5-3.14,14.17,2.5C118.76,89.53,121.08,103.14,117.66,112.35Z"/><path class="cls-39" d="M100.43,114.45c.07.5.14,1,.23,1.51,5,5.59,10.94,5.62,14.75.6C111.11,119.51,105.43,118.91,100.43,114.45Z"/><path class="cls-30" d="M148.91,95.17c-3.45,2.15-8.91,9.71-4.58,36.28a5.19,5.19,0,0,0,1.36,2.77c3,3.13,11.23,13.23,12.27,30.3a1.17,1.17,0,0,0,2.17.53c5-8.49,15.91-34-7.68-69.11A2.61,2.61,0,0,0,148.91,95.17Z"/><path class="cls-40" d="M152.45,95.94a2.61,2.61,0,0,0-3.54-.77,8.36,8.36,0,0,0-1.73,1.47,2.54,2.54,0,0,1,.95.84c20.73,30.85,14.84,54.3,9.69,65.29.06.58.1,1.16.14,1.75a1.17,1.17,0,0,0,2.17.53C165.16,156.56,176,131,152.45,95.94Z"/><path class="cls-41" d="M108.68,90.07c.67,4.34-.64,8.14-2.91,8.49s-4.64-2.9-5.3-7.24.65-8.14,2.91-8.49S108,85.73,108.68,90.07Z"/><path class="cls-41" d="M114.52,95.37c0,1.81-.72,3.28-1.61,3.28s-1.61-1.47-1.61-3.28.72-3.27,1.61-3.27S114.52,93.56,114.52,95.37Z"/><path class="cls-41" d="M110.54,29.83c.59.43,1.69-.38,2.23-1,4.17-4.55,7.2-10,10.06-15.46a3.55,3.55,0,0,0,.56-2.06c-.43-2.23-2.88.5-3.55,1.24a43,43,0,0,0-4.2,5.75,57.51,57.51,0,0,0-4.28,7.15c-.4.89-1.35,2.71-1.15,3.72A1,1,0,0,0,110.54,29.83Z"/><path class="cls-41" d="M110,35.94c-.64,1.53-1.7,2.54-2.37,2.25s-.71-1.74-.07-3.27,1.71-2.54,2.38-2.26S110.59,34.41,110,35.94Z"/><path class="cls-42" d="M146.89,22.28c13.11,2,25.51,5.92,35.78,11.85,30.74,17.74,30.74,46.51,0,64.26s-80.56,17.74-111.29,0-30.74-46.52,0-64.26c10.53-6.08,23.32-10.08,36.81-12"/><path class="cls-16" d="M229.22,63.68a5.87,5.87,0,0,0-1.06-.49,7.2,7.2,0,0,0,.68-3.24,17,17,0,0,0-7.69-13.31c-4.25-2.46-7.69-.47-7.69,4.44a8.77,8.77,0,0,0,0,.88,12,12,0,0,0-1.24-.86c-3.72-2.15-6.74-.41-6.74,3.89a11.24,11.24,0,0,0,.3,2.46L190.41,54l38.81,22.4c3.05,1.76,5.53.34,5.53-3.19A12.22,12.22,0,0,0,229.22,63.68Z"/><path class="cls-16" d="M262,116.07a3.25,3.25,0,0,0-.58-.26,4,4,0,0,0,.37-1.76,9.26,9.26,0,0,0-4.18-7.24c-2.31-1.33-4.18-.25-4.18,2.42,0,.15,0,.31,0,.47a5.7,5.7,0,0,0-.67-.46c-2-1.17-3.66-.22-3.66,2.11a5.7,5.7,0,0,0,.16,1.34l-8.37-1.86L262,123c1.65,1,3,.18,3-1.73A6.67,6.67,0,0,0,262,116.07Z"/><path class="cls-16" d="M34,110.71a2.72,2.72,0,0,0-.58-.27,3.85,3.85,0,0,0,.37-1.76,9.26,9.26,0,0,0-4.18-7.24c-2.31-1.33-4.18-.25-4.18,2.42,0,.15,0,.31,0,.48a4.27,4.27,0,0,0-.67-.47c-2-1.17-3.66-.22-3.66,2.11a6.21,6.21,0,0,0,.16,1.34L13,105.47,34,117.64c1.66,1,3,.18,3-1.73A6.61,6.61,0,0,0,34,110.71Z"/><path class="cls-43" d="M38.29,172.88A1.25,1.25,0,0,1,37,171.63V156.49a1.25,1.25,0,0,1,2.5,0v15.14A1.25,1.25,0,0,1,38.29,172.88Z"/><path class="cls-44" d="M46.41,156a8.12,8.12,0,0,1-16.24,0c0-3.51,5-13.42,7.14-17.55a1.1,1.1,0,0,1,1.95,0C41.42,142.6,46.41,152.51,46.41,156Z"/><path class="cls-43" d="M61.65,176.09a.84.84,0,0,1-.84-.84V165.12a.84.84,0,0,1,.84-.83.83.83,0,0,1,.83.83v10.13A.83.83,0,0,1,61.65,176.09Z"/><path class="cls-44" d="M67.08,164.81a5.43,5.43,0,0,1-10.86,0c0-2.35,3.33-9,4.77-11.75a.75.75,0,0,1,1.31,0C63.75,155.83,67.08,162.46,67.08,164.81Z"/><ellipse class="cls-45" cx="15.56" cy="195.06" rx="8.3" ry="3.59"/><ellipse class="cls-46" cx="225.73" cy="270.7" rx="8.3" ry="3.59"/><ellipse class="cls-47" cx="249" cy="257.83" rx="12.26" ry="3.8"/><ellipse class="cls-48" cx="31.86" cy="225.42" rx="8.3" ry="3.59"/><ellipse class="cls-49" cx="48.72" cy="233.32" rx="8.3" ry="3.59"/><ellipse class="cls-50" cx="206.92" cy="270.7" rx="8.3" ry="3.59"/><path class="cls-43" d="M11.74,194.15a.84.84,0,0,1-.84-.84V183.18a.84.84,0,0,1,1.68,0v10.13A.84.84,0,0,1,11.74,194.15Z"/><path class="cls-44" d="M17.17,182.87a5.43,5.43,0,0,1-10.86,0c0-2.35,3.33-9,4.78-11.75a.73.73,0,0,1,1.3,0C13.84,173.89,17.17,180.52,17.17,182.87Z"/><g class="cls-51"><path class="cls-52" d="M256.19,164.78l-18.16-10a1.21,1.21,0,0,1-.6-1l-.13-23a1.19,1.19,0,0,1,1.78-1l17.64,9.74a2.23,2.23,0,0,1,1.12,1.93l.13,22.38A1.19,1.19,0,0,1,256.19,164.78Z"/></g><line class="cls-53" x1="251.91" y1="146.19" x2="251.91" y2="158.76"/><line class="cls-53" x1="250.28" y1="144.78" x2="250.28" y2="157.8"/><line class="cls-53" x1="247.97" y1="149.29" x2="247.97" y2="156.43"/><line class="cls-53" x1="246.65" y1="148.34" x2="246.65" y2="155.59"/><polyline class="cls-53" points="253.99 142.47 251.91 146.19 250.28 144.78 247.97 149.29 246.62 147.94 241.24 152.62"/><polyline class="cls-53" points="254 141.02 254 160 240.5 152.19"/><path class="cls-54" d="M257.49,132.32A1.52,1.52,0,1,1,256,130.8,1.52,1.52,0,0,1,257.49,132.32Z"/><path class="cls-54" d="M244.57,162a.87.87,0,1,1-.87-.87A.87.87,0,0,1,244.57,162Z"/><path class="cls-54" d="M251.78,131.8a.87.87,0,1,1-.87-.87A.87.87,0,0,1,251.78,131.8Z"/><path class="cls-54" d="M233.83,144a.87.87,0,1,1-.86-.87A.86.86,0,0,1,233.83,144Z"/><g class="cls-51"><path class="cls-55" d="M256.19,204.94,238,194.9a1.2,1.2,0,0,1-.6-1l-.13-23a1.19,1.19,0,0,1,1.78-1l17.64,9.74a2.25,2.25,0,0,1,1.12,1.94L258,203.9A1.19,1.19,0,0,1,256.19,204.94Z"/></g><path class="cls-56" d="M257.73,173.28a1.52,1.52,0,1,1-1.52-1.52A1.52,1.52,0,0,1,257.73,173.28Z"/><path class="cls-56" d="M244.81,202.92a.87.87,0,1,1-.87-.87A.87.87,0,0,1,244.81,202.92Z"/><path class="cls-56" d="M252,172.76a.87.87,0,1,1-.87-.87A.87.87,0,0,1,252,172.76Z"/><path class="cls-56" d="M234.08,185a.87.87,0,1,1-.87-.87A.87.87,0,0,1,234.08,185Z"/><polygon class="cls-16" points="243.93 193.56 240.44 191.55 240.44 181.12 243.93 183.13 243.93 193.56"/><polygon class="cls-16" points="248.76 196.36 245.28 194.35 245.28 187.06 248.76 189.07 248.76 196.36"/><polygon class="cls-16" points="253.53 199.11 250.05 197.1 250.05 192.16 253.53 194.17 253.53 199.11"/><path class="cls-23" d="M53.76,174.54v4.58a5,5,0,0,1-7.1,4.61,4,4,0,0,1-.42-.2l-.49-.27-.64-.36-1-.57a2.26,2.26,0,0,1-.38-.25,3.23,3.23,0,0,1-1.27-2.57v-5a5.65,5.65,0,0,1,3.43-5.2,5.74,5.74,0,0,1,2.23-.46,3.4,3.4,0,0,1,.45,0,5.52,5.52,0,0,1,2.78,1,7.7,7.7,0,0,1,.76.63,2.61,2.61,0,0,1,.27.31A5.65,5.65,0,0,1,53.76,174.54Z"/><path class="cls-57" d="M48.57,168.91a3.5,3.5,0,0,0-1.08.79,10.09,10.09,0,0,0-2.27,4.73,16.13,16.13,0,0,0-.31,6.63,8.79,8.79,0,0,1,.2,1.84l-1-.57a2.26,2.26,0,0,1-.38-.25,39.38,39.38,0,0,1,1.1-9.85,11.12,11.12,0,0,1,1.06-2.89,5.74,5.74,0,0,1,2.23-.46A3.4,3.4,0,0,1,48.57,168.91Z"/><path class="cls-57" d="M52.38,170.84a2.32,2.32,0,0,1-.4.1c-.52.06-1-.08-1.57,0A3.22,3.22,0,0,0,48,172.41a7.13,7.13,0,0,0-1,2.73,40,40,0,0,0-.43,7.66c0,.32,0,.62,0,.93a4,4,0,0,1-.42-.2l-.49-.27a30,30,0,0,1,.45-9,6.28,6.28,0,0,1,.44-1.78,4.43,4.43,0,0,1,2.92-2.23,10.75,10.75,0,0,1,1.79-.34,7.7,7.7,0,0,1,.76.63A2.61,2.61,0,0,1,52.38,170.84Z"/><path class="cls-58" d="M53.76,174.54v4.58a5,5,0,0,1-7.1,4.61,4,4,0,0,1-.42-.2l-.49-.27-.64-.36-1-.57a2.26,2.26,0,0,1-.38-.25,3.23,3.23,0,0,1-1.27-2.57v-5a5.65,5.65,0,0,1,3.43-5.2,5.74,5.74,0,0,1,2.23-.46,3.4,3.4,0,0,1,.45,0,5.52,5.52,0,0,1,2.78,1,7.7,7.7,0,0,1,.76.63,2.61,2.61,0,0,1,.27.31A5.65,5.65,0,0,1,53.76,174.54Z"/><path class="cls-23" d="M52.89,185.41l-2.67-1.5v-4.86a4,4,0,0,1,4-4h0a4,4,0,0,1,4,4v3.25A3.58,3.58,0,0,1,52.89,185.41Z"/><path class="cls-59" d="M52.89,185.41l-2.67-1.5v-4.86a4,4,0,0,1,4-4h0a4,4,0,0,1,4,4v3.25A3.58,3.58,0,0,1,52.89,185.41Z"/><path class="cls-21" d="M57,177.42c0,.63-.7,1.14-1.56,1.14s-1.57-.51-1.57-1.14.7-1.14,1.57-1.14S57,176.79,57,177.42Z"/><path class="cls-21" d="M56.91,180.59c-.29,0-.52-.32-.52-.71s.23-.72.52-.72.51.32.51.72S57.19,180.59,56.91,180.59Z"/><path class="cls-21" d="M52.11,172.66c0,.63-.71,1.14-1.57,1.14S49,173.29,49,172.66s.7-1.14,1.57-1.14S52.11,172,52.11,172.66Z"/><path class="cls-23" d="M45.07,226.06v4a4.38,4.38,0,0,1-6.16,4c-.13-.05-.25-.12-.37-.18l-.43-.24-.55-.31-.87-.49a2.37,2.37,0,0,1-.33-.22,2.78,2.78,0,0,1-1.1-2.23v-4.32a4.89,4.89,0,0,1,3-4.51,4.76,4.76,0,0,1,1.93-.4l.4,0A4.88,4.88,0,0,1,43,222a5.66,5.66,0,0,1,.66.55,1.94,1.94,0,0,1,.23.26A4.9,4.9,0,0,1,45.07,226.06Z"/><path class="cls-57" d="M40.57,221.17a3.4,3.4,0,0,0-1,.69,8.85,8.85,0,0,0-2,4.11,14.17,14.17,0,0,0-.27,5.76,7.11,7.11,0,0,1,.18,1.59l-.87-.49a2.37,2.37,0,0,1-.33-.22,33.73,33.73,0,0,1,1-8.55,9.45,9.45,0,0,1,.93-2.51,4.76,4.76,0,0,1,1.93-.4Z"/><path class="cls-57" d="M43.87,222.85a1.4,1.4,0,0,1-.35.08c-.45.06-.91-.06-1.36,0a2.77,2.77,0,0,0-2.06,1.31,6.29,6.29,0,0,0-.84,2.36,35.26,35.26,0,0,0-.36,6.66c0,.27,0,.53,0,.81-.13-.05-.25-.12-.37-.18l-.43-.24a26.08,26.08,0,0,1,.39-7.82,5.78,5.78,0,0,1,.39-1.55,3.8,3.8,0,0,1,2.53-1.93A9.44,9.44,0,0,1,43,222a5.66,5.66,0,0,1,.66.55A1.94,1.94,0,0,1,43.87,222.85Z"/><path class="cls-60" d="M45.07,226.06v4a4.38,4.38,0,0,1-6.16,4c-.13-.05-.25-.12-.37-.18l-.43-.24-.55-.31-.87-.49a2.37,2.37,0,0,1-.33-.22,2.78,2.78,0,0,1-1.1-2.23v-4.32a4.89,4.89,0,0,1,3-4.51,4.76,4.76,0,0,1,1.93-.4l.4,0A4.88,4.88,0,0,1,43,222a5.66,5.66,0,0,1,.66.55,1.94,1.94,0,0,1,.23.26A4.9,4.9,0,0,1,45.07,226.06Z"/><path class="cls-23" d="M44.31,235.51,42,234.2V230a3.48,3.48,0,0,1,3.48-3.47h0A3.48,3.48,0,0,1,48.94,230v2.82A3.11,3.11,0,0,1,44.31,235.51Z"/><path class="cls-61" d="M44.31,235.51,42,234.2V230a3.48,3.48,0,0,1,3.48-3.47h0A3.48,3.48,0,0,1,48.94,230v2.82A3.11,3.11,0,0,1,44.31,235.51Z"/><path class="cls-21" d="M47.85,228.57c0,.54-.61,1-1.36,1s-1.36-.44-1.36-1,.61-1,1.36-1S47.85,228,47.85,228.57Z"/><path class="cls-21" d="M47.8,231.32c-.25,0-.45-.28-.45-.62s.2-.62.45-.62.45.27.45.62S48.05,231.32,47.8,231.32Z"/><path class="cls-21" d="M43.63,224.43c0,.55-.61,1-1.36,1s-1.36-.44-1.36-1,.61-1,1.36-1S43.63,223.88,43.63,224.43Z"/><path class="cls-43" d="M29,226.92a1.27,1.27,0,0,1-1.27-1.27V210.29a1.27,1.27,0,0,1,2.54,0v15.36A1.27,1.27,0,0,1,29,226.92Z"/><path class="cls-44" d="M37.19,209.81a8.24,8.24,0,0,1-16.48,0c0-3.57,5.06-13.63,7.25-17.82a1.12,1.12,0,0,1,2,0C32.13,196.18,37.19,206.24,37.19,209.81Z"/><path class="cls-23" d="M199.34,261.07v4.58a5,5,0,0,0,7.1,4.61,4,4,0,0,0,.42-.2l.49-.28.64-.35,1-.57a2.26,2.26,0,0,0,.38-.25,3.25,3.25,0,0,0,1.27-2.57v-5a5.64,5.64,0,0,0-3.43-5.2,5.48,5.48,0,0,0-2.22-.46l-.46,0a5.66,5.66,0,0,0-2.78,1,6.51,6.51,0,0,0-.76.63,4,4,0,0,0-.27.31A5.63,5.63,0,0,0,199.34,261.07Z"/><path class="cls-57" d="M204.53,255.43a3.89,3.89,0,0,1,1.09.8,10.24,10.24,0,0,1,2.27,4.73,16.31,16.31,0,0,1,.31,6.63,8.18,8.18,0,0,0-.21,1.84l1-.57a2.26,2.26,0,0,0,.38-.25,38.91,38.91,0,0,0-1.09-9.85,11.14,11.14,0,0,0-1.07-2.89,5.48,5.48,0,0,0-2.22-.46Z"/><path class="cls-57" d="M200.72,257.37a2,2,0,0,0,.4.09c.52.07,1.06-.07,1.58,0a3.22,3.22,0,0,1,2.36,1.51,6.94,6.94,0,0,1,1,2.72,40.11,40.11,0,0,1,.42,7.67c0,.31,0,.62,0,.93a4,4,0,0,0,.42-.2l.49-.28a30.06,30.06,0,0,0-.44-9,6.84,6.84,0,0,0-.45-1.78,4.36,4.36,0,0,0-2.92-2.22,10.75,10.75,0,0,0-1.79-.34,6.51,6.51,0,0,0-.76.63A4,4,0,0,0,200.72,257.37Z"/><path class="cls-62" d="M199.34,261.07v4.58a5,5,0,0,0,7.1,4.61,4,4,0,0,0,.42-.2l.49-.28.64-.35,1-.57a2.26,2.26,0,0,0,.38-.25,3.25,3.25,0,0,0,1.27-2.57v-5a5.64,5.64,0,0,0-3.43-5.2,5.48,5.48,0,0,0-2.22-.46l-.46,0a5.66,5.66,0,0,0-2.78,1,6.51,6.51,0,0,0-.76.63,4,4,0,0,0-.27.31A5.63,5.63,0,0,0,199.34,261.07Z"/><path class="cls-23" d="M200.22,271.94l2.67-1.5v-4.86a4,4,0,0,0-4-4h0a4,4,0,0,0-4,4v3.24A3.58,3.58,0,0,0,200.22,271.94Z"/><path class="cls-63" d="M200.22,271.94l2.67-1.5v-4.86a4,4,0,0,0-4-4h0a4,4,0,0,0-4,4v3.24A3.58,3.58,0,0,0,200.22,271.94Z"/><path class="cls-21" d="M196.14,264c0,.63.7,1.14,1.57,1.14s1.57-.51,1.57-1.14-.7-1.14-1.57-1.14S196.14,263.32,196.14,264Z"/><path class="cls-21" d="M196.2,267.12c.29,0,.52-.32.52-.72s-.23-.71-.52-.71-.52.32-.52.71S195.91,267.12,196.2,267.12Z"/><path class="cls-21" d="M201,259.19c0,.63.7,1.13,1.57,1.13s1.56-.5,1.56-1.13-.7-1.14-1.56-1.14S201,258.56,201,259.19Z"/><path class="cls-43" d="M243.53,259.25a1.5,1.5,0,0,1-1.5-1.5V239.58a1.5,1.5,0,0,1,3,0v18.17A1.5,1.5,0,0,1,243.53,259.25Z"/><path class="cls-44" d="M253.28,239a9.75,9.75,0,0,1-19.49,0c0-4.22,6-16.11,8.57-21.06a1.33,1.33,0,0,1,2.35,0C247.3,222.9,253.28,234.79,253.28,239Z"/><path class="cls-43" d="M224.62,269.77a1.12,1.12,0,0,1-1.12-1.12v-13.5a1.12,1.12,0,1,1,2.23,0v13.5A1.12,1.12,0,0,1,224.62,269.77Z"/><path class="cls-44" d="M231.86,254.73a7.25,7.25,0,0,1-14.49,0c0-3.14,4.45-12,6.37-15.66a1,1,0,0,1,1.75,0C227.41,242.75,231.86,251.59,231.86,254.73Z"/><ellipse class="cls-64" cx="93.85" cy="266.38" rx="8.3" ry="3.59"/><ellipse class="cls-65" cx="101.71" cy="273.48" rx="6.93" ry="3.59"/><ellipse class="cls-66" cx="118.1" cy="272.98" rx="9.45" ry="4.08"/><path class="cls-43" d="M92,268.27a.85.85,0,0,1-.84-.84V257.3a.84.84,0,0,1,1.68,0v10.13A.85.85,0,0,1,92,268.27Z"/><path class="cls-44" d="M97.47,257a5.43,5.43,0,1,1-10.86,0c0-2.35,3.33-9,4.77-11.75a.74.74,0,0,1,1.31,0C94.14,248,97.47,254.64,97.47,257Z"/><path class="cls-23" d="M96.7,266v3.56a3.92,3.92,0,0,0,5.52,3.59,2.49,2.49,0,0,0,.33-.16l.38-.21.5-.28.77-.44a3,3,0,0,0,.3-.19,2.54,2.54,0,0,0,1-2V266a4.4,4.4,0,0,0-2.67-4.05,4.53,4.53,0,0,0-1.73-.35l-.36,0a4.33,4.33,0,0,0-2.16.77,7,7,0,0,0-.59.49c-.08.08-.14.16-.21.24A4.39,4.39,0,0,0,96.7,266Z"/><path class="cls-57" d="M100.73,261.6a3,3,0,0,1,.85.61,7.94,7.94,0,0,1,1.76,3.68,12.67,12.67,0,0,1,.25,5.16,5.81,5.81,0,0,0-.16,1.43l.77-.44a3,3,0,0,0,.3-.19,31,31,0,0,0-.85-7.67,9.19,9.19,0,0,0-.83-2.25,4.53,4.53,0,0,0-1.73-.35Z"/><path class="cls-57" d="M97.77,263.1a1.73,1.73,0,0,0,.31.08c.41.05.82-.06,1.23,0a2.5,2.5,0,0,1,1.84,1.17,5.73,5.73,0,0,1,.75,2.12,32.13,32.13,0,0,1,.33,6c0,.24,0,.48,0,.72a2.49,2.49,0,0,0,.33-.16l.38-.21a23.31,23.31,0,0,0-.35-7,5,5,0,0,0-.34-1.38,3.41,3.41,0,0,0-2.28-1.73,7.61,7.61,0,0,0-1.39-.27,7,7,0,0,0-.59.49C97.9,262.94,97.84,263,97.77,263.1Z"/><path class="cls-67" d="M96.7,266v3.56a3.92,3.92,0,0,0,5.52,3.59,2.49,2.49,0,0,0,.33-.16l.38-.21.5-.28.77-.44a3,3,0,0,0,.3-.19,2.54,2.54,0,0,0,1-2V266a4.4,4.4,0,0,0-2.67-4.05,4.53,4.53,0,0,0-1.73-.35l-.36,0a4.33,4.33,0,0,0-2.16.77,7,7,0,0,0-.59.49c-.08.08-.14.16-.21.24A4.39,4.39,0,0,0,96.7,266Z"/><path class="cls-23" d="M97.37,274.44l2.08-1.17v-3.78a3.11,3.11,0,0,0-3.11-3.11h0a3.11,3.11,0,0,0-3.11,3.11V272A2.78,2.78,0,0,0,97.37,274.44Z"/><path class="cls-68" d="M97.37,274.44l2.08-1.17v-3.78a3.11,3.11,0,0,0-3.11-3.11h0a3.11,3.11,0,0,0-3.11,3.11V272A2.78,2.78,0,0,0,97.37,274.44Z"/><ellipse class="cls-21" cx="95.43" cy="268.22" rx="1.22" ry="0.89"/><path class="cls-21" d="M94.25,270.69c.23,0,.41-.25.41-.56s-.18-.56-.41-.56-.4.25-.4.56S94,270.69,94.25,270.69Z"/><ellipse class="cls-21" cx="99.2" cy="264.52" rx="1.22" ry="0.89"/><path class="cls-43" d="M112.12,274a1.25,1.25,0,0,1-1.25-1.25V257.58a1.25,1.25,0,0,1,2.5,0v15.14A1.25,1.25,0,0,1,112.12,274Z"/><path class="cls-44" d="M120.24,257.11a8.12,8.12,0,0,1-16.24,0c0-3.52,5-13.43,7.15-17.56a1.1,1.1,0,0,1,1.95,0C115.26,243.68,120.24,253.59,120.24,257.11Z"/></g></g></g></svg>